<svg width="110" height="110" viewBox="0 0 110 110" fill="none" xmlns="http://www.w3.org/2000/svg">
<path d="M4.18134 70.0142C4.18197 69.6803 3.91181 69.4091 3.57794 69.4085C3.24407 69.4079 2.97291 69.6781 2.97228 70.0119C2.97166 70.3458 3.24181 70.617 3.57569 70.6176C3.90956 70.6182 4.18072 70.3481 4.18134 70.0142Z" fill="black"/>
<path d="M3.86996 66.6908C3.87739 66.3404 3.59939 66.0504 3.24904 66.043C2.89869 66.0355 2.60866 66.3135 2.60123 66.6639C2.59381 67.0142 2.8718 67.3043 3.22215 67.3117C3.5725 67.3191 3.86254 67.0411 3.86996 66.6908Z" fill="black"/>
<path d="M3.70836 61.7716C3.7218 61.4629 3.4824 61.2017 3.17365 61.1882C2.86491 61.1748 2.60373 61.4142 2.59029 61.7229C2.57686 62.0317 2.81626 62.2929 3.125 62.3063C3.43375 62.3197 3.69493 62.0803 3.70836 61.7716Z" fill="black"/>
<path d="M1.92794 53.6812C1.95045 53.3592 1.70763 53.0799 1.38558 53.0574C1.06353 53.0348 0.784208 53.2777 0.761695 53.5997C0.739183 53.9218 0.982006 54.2011 1.30405 54.2236C1.6261 54.2461 1.90543 54.0033 1.92794 53.6812Z" fill="black"/>
<path d="M1.90892 50.6645C1.93108 50.3314 1.67898 50.0434 1.34584 50.0212C1.0127 49.9991 0.724682 50.2512 0.702527 50.5843C0.680372 50.9174 0.932473 51.2055 1.26561 51.2276C1.59874 51.2498 1.88677 50.9977 1.90892 50.6645Z" fill="black"/>
<path d="M3.62244 42.4217C3.63621 42.0522 3.34785 41.7415 2.97837 41.7277C2.60888 41.7139 2.29818 42.0023 2.28441 42.3718C2.27063 42.7413 2.55899 43.052 2.92848 43.0657C3.29796 43.0795 3.60866 42.7911 3.62244 42.4217Z" fill="black"/>
<path d="M7.13942 78.3706C7.12295 78.0344 6.83704 77.7752 6.50081 77.7916C6.16458 77.8081 5.90536 78.094 5.92183 78.4302C5.9383 78.7665 6.22422 79.0257 6.56045 79.0092C6.89668 78.9927 7.15589 78.7068 7.13942 78.3706Z" fill="black"/>
<path d="M6.47628 72.3117C6.47085 71.9752 6.19359 71.7067 5.857 71.7121C5.52041 71.7176 5.25196 71.9948 5.25739 72.3314C5.26281 72.668 5.54008 72.9364 5.87666 72.931C6.21325 72.9256 6.48171 72.6483 6.47628 72.3117Z" fill="black"/>
<path d="M6.4275 67.7444C6.43064 67.4023 6.15582 67.1224 5.81368 67.1193C5.47155 67.1161 5.19165 67.391 5.18851 67.7331C5.18538 68.0752 5.46019 68.3551 5.80233 68.3583C6.14447 68.3614 6.42437 68.0866 6.4275 67.7444Z" fill="black"/>
<path d="M5.61295 66.3049C5.61955 65.9656 5.34982 65.6851 5.0105 65.6785C4.67117 65.6719 4.39073 65.9417 4.38413 66.281C4.37753 66.6203 4.64725 66.9007 4.98658 66.9073C5.32591 66.9139 5.60634 66.6442 5.61295 66.3049Z" fill="black"/>
<path d="M5.75868 60.918C5.77111 60.5954 5.51968 60.3238 5.19708 60.3114C4.87448 60.299 4.60289 60.5504 4.59046 60.873C4.57803 61.1956 4.82946 61.4672 5.15206 61.4796C5.47466 61.492 5.74625 61.2406 5.75868 60.918Z" fill="black"/>
<path d="M3.63592 52.7082C3.6601 52.3724 3.40751 52.0806 3.07175 52.0564C2.73599 52.0322 2.4442 52.2848 2.42002 52.6206C2.39584 52.9564 2.64843 53.2481 2.98419 53.2723C3.31995 53.2965 3.61174 53.0439 3.63592 52.7082Z" fill="black"/>
<path d="M5.26698 47.6147C5.28991 47.2567 5.01831 46.9479 4.66034 46.925C4.30237 46.902 3.99358 47.1736 3.97064 47.5316C3.94771 47.8896 4.21931 48.1984 4.57728 48.2213C4.93525 48.2442 5.24404 47.9726 5.26698 47.6147Z" fill="black"/>
<path d="M5.93554 40.1949C5.94668 39.8087 5.64268 39.4867 5.25654 39.4755C4.87041 39.4644 4.54835 39.7684 4.53721 40.1545C4.52607 40.5407 4.83007 40.8627 5.21621 40.8739C5.60235 40.885 5.92441 40.581 5.93554 40.1949Z" fill="black"/>
<path d="M5.98963 37.6175C5.99496 37.1706 5.63694 36.8039 5.18996 36.7986C4.74299 36.7932 4.37633 37.1513 4.37101 37.5982C4.36568 38.0452 4.72371 38.4119 5.17068 38.4172C5.61765 38.4225 5.98431 38.0645 5.98963 37.6175Z" fill="black"/>
<path d="M7.55068 33.1571C7.54283 32.6466 7.12269 32.2392 6.61229 32.2471C6.10188 32.2549 5.69448 32.6751 5.70233 33.1855C5.71018 33.6959 6.13032 34.1033 6.64073 34.0954C7.15113 34.0876 7.55853 33.6675 7.55068 33.1571Z" fill="black"/>
<path d="M8.69133 28.6253C8.66801 28.0601 8.19094 27.6209 7.62577 27.6442C7.0606 27.6675 6.62134 28.1446 6.64466 28.7097C6.66798 29.2749 7.14504 29.7142 7.71021 29.6909C8.27538 29.6675 8.71464 29.1905 8.69133 28.6253Z" fill="black"/>
<path d="M13.0828 87.0395C13.0598 86.7064 12.7711 86.455 12.438 86.4781C12.1049 86.5011 11.8536 86.7898 11.8767 87.1229C11.8997 87.456 12.1884 87.7073 12.5215 87.6843C12.8546 87.6612 13.1059 87.3725 13.0828 87.0395Z" fill="black"/>
<path d="M11.6682 83.7262C11.6443 83.3821 11.346 83.1226 11.0019 83.1464C10.6578 83.1703 10.3982 83.4686 10.4221 83.8127C10.446 84.1568 10.7443 84.4164 11.0884 84.3925C11.4325 84.3686 11.692 84.0703 11.6682 83.7262Z" fill="black"/>
<path d="M10.0006 81.0332C9.97989 80.7028 9.69519 80.4517 9.36473 80.4724C9.03427 80.4931 8.78317 80.7778 8.80389 81.1083C8.82461 81.4387 9.1093 81.6898 9.43976 81.6691C9.77023 81.6484 10.0213 81.3637 10.0006 81.0332Z" fill="black"/>
<path d="M8.333 74.4827C8.32196 74.1435 8.03802 73.8774 7.69881 73.8885C7.3596 73.8995 7.09356 74.1835 7.10461 74.5227C7.11565 74.8619 7.39959 75.1279 7.7388 75.1169C8.07802 75.1058 8.34405 74.8219 8.333 74.4827Z" fill="black"/>
<path d="M7.89658 69.2556C7.89396 68.9162 7.61671 68.6432 7.27733 68.6458C6.93795 68.6484 6.66495 68.9257 6.66757 69.2651C6.6702 69.6044 6.94744 69.8774 7.28682 69.8748C7.6262 69.8722 7.8992 69.5949 7.89658 69.2556Z" fill="black"/>
<path d="M6.77292 66.2652C6.77731 65.9314 6.51024 65.6572 6.17639 65.6528C5.84255 65.6484 5.56836 65.9155 5.56397 66.2493C5.55958 66.5832 5.82665 66.8574 6.16049 66.8617C6.49434 66.8661 6.76853 66.5991 6.77292 66.2652Z" fill="black"/>
<path d="M5.86105 59.865C5.87409 59.5396 5.62092 59.2653 5.29559 59.2523C4.97026 59.2392 4.69595 59.4924 4.68291 59.8177C4.66987 60.1431 4.92303 60.4174 5.24837 60.4304C5.5737 60.4435 5.84801 60.1903 5.86105 59.865Z" fill="black"/>
<path d="M6.43501 54.4088C6.45781 54.0508 6.18609 53.7422 5.8281 53.7194C5.47012 53.6966 5.16144 53.9683 5.13864 54.3263C5.11584 54.6842 5.38756 54.9929 5.74554 55.0157C6.10353 55.0385 6.41221 54.7668 6.43501 54.4088Z" fill="black"/>
<path d="M5.62954 47.6939C5.65235 47.336 5.38065 47.0273 5.02267 47.0044C4.66469 46.9816 4.35599 47.2533 4.33318 47.6113C4.31036 47.9693 4.58207 48.278 4.94005 48.3008C5.29803 48.3236 5.60672 48.0519 5.62954 47.6939Z" fill="black"/>
<path d="M7.07989 43.2792C7.09707 42.8878 6.79368 42.5565 6.40224 42.5394C6.0108 42.5222 5.67954 42.8256 5.66236 43.217C5.64517 43.6084 5.94856 43.9397 6.34 43.9569C6.73144 43.9741 7.0627 43.6707 7.07989 43.2792Z" fill="black"/>
<path d="M8.19565 35.4549C8.19648 34.9445 7.78334 34.53 7.27288 34.5291C6.76241 34.5283 6.34792 34.9415 6.34709 35.4519C6.34626 35.9624 6.7594 36.3769 7.26987 36.3777C7.78033 36.3785 8.19482 35.9654 8.19565 35.4549Z" fill="black"/>
<path d="M9.76613 32.1626C9.75677 31.6329 9.31977 31.2111 8.79007 31.2205C8.26037 31.2298 7.83856 31.6668 7.84792 32.1965C7.85729 32.7262 8.29429 33.1481 8.82399 33.1387C9.35369 33.1293 9.7755 32.6923 9.76613 32.1626Z" fill="black"/>
<path d="M9.47362 29.3154C9.45389 28.7694 8.99529 28.3428 8.44931 28.3625C7.90333 28.3823 7.47672 28.8409 7.49645 29.3868C7.51618 29.9328 7.97478 30.3594 8.52076 30.3397C9.06674 30.32 9.49335 29.8614 9.47362 29.3154Z" fill="black"/>
<path d="M14.1218 23.7761C14.087 23.1451 13.5473 22.6619 12.9164 22.6967C12.2855 22.7316 11.8023 23.2712 11.8371 23.9022C11.8719 24.5331 12.4116 25.0163 13.0425 24.9815C13.6734 24.9467 14.1566 24.407 14.1218 23.7761Z" fill="black"/>
<path d="M15.191 19.7038C15.1493 19.0318 14.5708 18.5209 13.8988 18.5626C13.2268 18.6043 12.7159 19.1828 12.7576 19.8548C12.7992 20.5267 13.3778 21.0377 14.0498 20.996C14.7217 20.9543 15.2327 20.3758 15.191 19.7038Z" fill="black"/>
<path d="M16.179 90.9558C16.1594 90.6225 15.8733 90.3682 15.54 90.3878C15.2067 90.4074 14.9524 90.6935 14.972 91.0268C14.9916 91.3601 15.2777 91.6144 15.611 91.5948C15.9443 91.5752 16.1986 91.2891 16.179 90.9558Z" fill="black"/>
<path d="M16.2708 86.6595C16.2441 86.3129 15.9415 86.0534 15.5949 86.08C15.2482 86.1067 14.9888 86.4092 15.0154 86.7559C15.042 87.1025 15.3446 87.362 15.6913 87.3354C16.0379 87.3088 16.2974 87.0062 16.2708 86.6595Z" fill="black"/>
<path d="M13.9239 82.8416C13.8976 82.5033 13.6019 82.2503 13.2636 82.2766C12.9252 82.303 12.6723 82.5986 12.6986 82.937C12.725 83.2754 13.0206 83.5283 13.359 83.502C13.6973 83.4756 13.9503 83.18 13.9239 82.8416Z" fill="black"/>
<path d="M13.6984 77.5019C13.6649 77.1447 13.3483 76.8823 12.9911 76.9158C12.634 76.9493 12.3716 77.2659 12.4051 77.6231C12.4386 77.9802 12.7552 78.2426 13.1123 78.2091C13.4695 78.1757 13.7319 77.859 13.6984 77.5019Z" fill="black"/>
<path d="M12.9011 74.303C12.8708 73.9594 12.5678 73.7054 12.2242 73.7357C11.8806 73.7659 11.6266 74.069 11.6569 74.4126C11.6871 74.7561 11.9902 75.0102 12.3337 74.9799C12.6773 74.9497 12.9313 74.6466 12.9011 74.303Z" fill="black"/>
<path d="M9.8338 69.4948C9.82259 69.1583 9.54075 68.8947 9.2043 68.9059C8.86786 68.9171 8.60421 69.199 8.61543 69.5354C8.62665 69.8719 8.90848 70.1355 9.24493 70.1243C9.58137 70.1131 9.84502 69.8312 9.8338 69.4948Z" fill="black"/>
<path d="M9.01384 64.4052C9.00902 64.0686 8.73224 63.7997 8.39565 63.8045C8.05905 63.8093 7.79009 64.0861 7.79491 64.4227C7.79972 64.7593 8.0765 65.0282 8.41309 65.0234C8.74969 65.0186 9.01865 64.7418 9.01384 64.4052Z" fill="black"/>
<path d="M9.10632 59.4422C9.1002 59.1057 8.82239 58.8378 8.48581 58.8439C8.14924 58.85 7.88135 59.1278 7.88747 59.4644C7.8936 59.801 8.17141 60.0689 8.50798 60.0627C8.84456 60.0566 9.11244 59.7788 9.10632 59.4422Z" fill="black"/>
<path d="M8.27692 49.9988C8.28882 49.6292 7.99888 49.32 7.62933 49.3081C7.25978 49.2962 6.95055 49.5861 6.93865 49.9557C6.92675 50.3252 7.21669 50.6345 7.58624 50.6464C7.95579 50.6583 8.26502 50.3683 8.27692 49.9988Z" fill="black"/>
<path d="M9.65978 42.5287C9.66169 42.1259 9.33666 41.7978 8.93381 41.7958C8.53096 41.7939 8.20283 42.119 8.20093 42.5218C8.19902 42.9247 8.52405 43.2528 8.9269 43.2547C9.32975 43.2566 9.65787 42.9316 9.65978 42.5287Z" fill="black"/>
<path d="M10.2876 36.1599C10.2867 35.6742 9.89229 35.2813 9.40666 35.2822C8.92103 35.2831 8.52807 35.6775 8.52898 36.1631C8.52988 36.6488 8.92429 37.0417 9.40993 37.0408C9.89556 37.0399 10.2885 36.6455 10.2876 36.1599Z" fill="black"/>
<path d="M12.2194 30.4113C12.2033 29.8238 11.7141 29.3605 11.1266 29.3765C10.5391 29.3925 10.0758 29.8818 10.0918 30.4693C10.1078 31.0568 10.5971 31.5201 11.1846 31.5041C11.7721 31.488 12.2354 30.9988 12.2194 30.4113Z" fill="black"/>
<path d="M13.5576 27.9021C13.5337 27.2873 13.0159 26.8082 12.401 26.8321C11.7862 26.856 11.3071 27.3738 11.331 27.9887C11.3549 28.6035 11.8727 29.0826 12.4876 29.0587C13.1024 29.0348 13.5815 28.517 13.5576 27.9021Z" fill="black"/>
<path d="M15.6062 23.2953C15.5718 22.6699 15.037 22.1907 14.4116 22.225C13.7862 22.2594 13.307 22.7942 13.3413 23.4196C13.3757 24.045 13.9105 24.5242 14.5359 24.4899C15.1613 24.4555 15.6405 23.9207 15.6062 23.2953Z" fill="black"/>
<path d="M15.8798 20.9396C15.8405 20.2868 15.2794 19.7896 14.6267 19.8289C13.9739 19.8683 13.4766 20.4294 13.516 21.0821C13.5553 21.7349 14.1164 22.2322 14.7692 22.1928C15.4219 22.1535 15.9192 21.5924 15.8798 20.9396Z" fill="black"/>
<path d="M20.7142 15.9489C20.6762 15.285 20.1071 14.7776 19.4432 14.8157C18.7793 14.8537 18.272 15.4228 18.3101 16.0867C18.3481 16.7506 18.9172 17.2579 19.5811 17.2199C20.2449 17.1818 20.7523 16.6128 20.7142 15.9489Z" fill="black"/>
<path d="M21.2319 94.2296C21.2175 93.8877 20.9287 93.6223 20.5869 93.6367C20.245 93.6511 19.9796 93.9399 19.994 94.2818C20.0084 94.6236 20.2972 94.889 20.6391 94.8746C20.9809 94.8602 21.2463 94.5714 21.2319 94.2296Z" fill="black"/>
<path d="M20.3239 90.7761C20.3004 90.432 20.0023 90.1721 19.6582 90.1957C19.3141 90.2193 19.0542 90.5173 19.0778 90.8614C19.1013 91.2055 19.3994 91.4654 19.7435 91.4418C20.0876 91.4183 20.3475 91.1202 20.3239 90.7761Z" fill="black"/>
<path d="M18.4762 87.476C18.4462 87.1435 18.1523 86.8983 17.8198 86.9283C17.4873 86.9583 17.242 87.2521 17.272 87.5847C17.302 87.9172 17.5959 88.1624 17.9285 88.1324C18.261 88.1024 18.5062 87.8085 18.4762 87.476Z" fill="black"/>
<path d="M16.3729 85.1904C16.3418 84.8386 16.0315 84.5785 15.6797 84.6096C15.3278 84.6406 15.0678 84.9509 15.0988 85.3028C15.1298 85.6546 15.4402 85.9146 15.792 85.8836C16.1438 85.8526 16.4039 85.5423 16.3729 85.1904Z" fill="black"/>
<path d="M16.6108 80.2622C16.5655 79.9314 16.2607 79.7 15.9299 79.7453C15.5991 79.7906 15.3676 80.0954 15.4129 80.4262C15.4583 80.757 15.7631 80.9884 16.0939 80.9431C16.4247 80.8978 16.6561 80.593 16.6108 80.2622Z" fill="black"/>
<path d="M16.6545 77.3864C16.5986 77.0432 16.2752 76.8103 15.932 76.8662C15.5889 76.922 15.356 77.2455 15.4118 77.5886C15.4677 77.9318 15.7911 78.1647 16.1343 78.1088C16.4774 78.053 16.7103 77.7295 16.6545 77.3864Z" fill="black"/>
<path d="M12.7072 69.5672C12.6744 69.2349 12.3785 68.9921 12.0462 69.0249C11.714 69.0576 11.4712 69.3535 11.5039 69.6858C11.5367 70.0181 11.8326 70.2609 12.1649 70.2281C12.4971 70.1954 12.7399 69.8994 12.7072 69.5672Z" fill="black"/>
<path d="M12.8466 68.466C12.8108 68.134 12.5126 67.894 12.1807 67.9298C11.8487 67.9656 11.6087 68.2638 11.6445 68.5957C11.6803 68.9277 11.9785 69.1677 12.3104 69.1319C12.6424 69.096 12.8824 68.7979 12.8466 68.466Z" fill="black"/>
<path d="M10.5985 57.9531C10.5862 57.6222 10.3079 57.364 9.97706 57.3764C9.64618 57.3887 9.38796 57.667 9.40032 57.9978C9.41267 58.3287 9.69092 58.5869 10.0218 58.5746C10.3527 58.5622 10.6109 58.284 10.5985 57.9531Z" fill="black"/>
<path d="M10.4221 54.7745C10.4099 54.4325 10.1229 54.1652 9.78093 54.1774C9.439 54.1896 9.17169 54.4767 9.18389 54.8186C9.19609 55.1606 9.48317 55.4279 9.8251 55.4157C10.167 55.4035 10.4343 55.1164 10.4221 54.7745Z" fill="black"/>
<path d="M10.3927 42.0871C10.3874 41.6788 10.0521 41.352 9.64375 41.3573C9.23542 41.3626 8.90868 41.6979 8.91398 42.1063C8.91927 42.5146 9.25459 42.8414 9.66293 42.8361C10.0713 42.8308 10.398 42.4955 10.3927 42.0871Z" fill="black"/>
<path d="M13.4356 34.7452C13.4063 34.2217 12.9582 33.8211 12.4348 33.8504C11.9113 33.8797 11.5107 34.3278 11.5401 34.8513C11.5694 35.3747 12.0175 35.7753 12.5409 35.746C13.0643 35.7167 13.4649 35.2686 13.4356 34.7452Z" fill="black"/>
<path d="M14.539 29.8964C14.5102 29.3011 14.0042 28.8419 13.4089 28.8707C12.8136 28.8995 12.3544 29.4055 12.3832 30.0008C12.412 30.5961 12.918 31.0553 13.5133 31.0265C14.1086 30.9977 14.5678 30.4917 14.539 29.8964Z" fill="black"/>
<path d="M15.328 27.3969C15.2978 26.7879 14.7795 26.3187 14.1705 26.3489C13.5614 26.3791 13.0922 26.8974 13.1224 27.5064C13.1527 28.1155 13.6709 28.5847 14.28 28.5545C14.889 28.5242 15.3582 28.006 15.328 27.3969Z" fill="black"/>
<path d="M18.7782 21.3023C18.7413 20.6715 18.1999 20.1901 17.5691 20.2271C16.9383 20.2641 16.457 20.8054 16.4939 21.4362C16.5309 22.067 17.0722 22.5484 17.703 22.5114C18.3338 22.4744 18.8152 21.9331 18.7782 21.3023Z" fill="black"/>
<path d="M21.2777 18.2802C21.2399 17.6384 20.6889 17.1488 20.0471 17.1867C19.4053 17.2246 18.9157 17.7755 18.9536 18.4173C18.9915 19.0591 19.5424 19.5487 20.1842 19.5108C20.826 19.473 21.3156 18.922 21.2777 18.2802Z" fill="black"/>
<path d="M25.0475 13.1435C25.0146 12.4876 24.4562 11.9826 23.8003 12.0156C23.1444 12.0485 22.6394 12.6069 22.6724 13.2628C22.7053 13.9187 23.2637 14.4237 23.9196 14.3907C24.5755 14.3578 25.0805 13.7994 25.0475 13.1435Z" fill="black"/>
<path d="M25.0358 98.6684C25.0319 98.3401 24.7626 98.077 24.4343 98.0809C24.1059 98.0848 23.8429 98.354 23.8468 98.6824C23.8506 99.0107 24.1199 99.2738 24.4482 99.2699C24.7766 99.266 25.0396 98.9967 25.0358 98.6684Z" fill="black"/>
<path d="M25.0025 96.6606C24.9942 96.3407 24.7282 96.088 24.4082 96.0962C24.0882 96.1045 23.8355 96.3705 23.8438 96.6905C23.852 97.0105 24.1181 97.2632 24.4381 97.2549C24.758 97.2467 25.0107 96.9806 25.0025 96.6606Z" fill="black"/>
<path d="M21.682 92.7771C21.6635 92.4354 21.3715 92.1735 21.0299 92.192C20.6882 92.2105 20.4263 92.5024 20.4448 92.8441C20.4633 93.1857 20.7552 93.4477 21.0969 93.4292C21.4385 93.4107 21.7005 93.1187 21.682 92.7771Z" fill="black"/>
<path d="M22.5364 90.442C22.5045 90.1208 22.2181 89.8863 21.8969 89.9182C21.5756 89.9502 21.3411 90.2365 21.3731 90.5578C21.405 90.879 21.6914 91.1135 22.0126 91.0816C22.3339 91.0496 22.5684 90.7633 22.5364 90.442Z" fill="black"/>
<path d="M21.0832 88.1519C21.0446 87.8286 20.7511 87.5979 20.4278 87.6366C20.1045 87.6753 19.8738 87.9687 19.9125 88.292C19.9512 88.6153 20.2446 88.846 20.5679 88.8073C20.8912 88.7686 21.1219 88.4752 21.0832 88.1519Z" fill="black"/>
<path d="M24.3473 86.067C24.2688 85.7538 23.9514 85.5635 23.6382 85.642C23.3251 85.7204 23.1348 86.0379 23.2132 86.351C23.2916 86.6642 23.6091 86.8545 23.9222 86.776C24.2354 86.6976 24.4257 86.3802 24.3473 86.067Z" fill="black"/>
<path d="M22.1689 82.1675C22.0819 81.8452 21.75 81.6544 21.4277 81.7415C21.1053 81.8285 20.9146 82.1604 21.0017 82.4827C21.0887 82.805 21.4206 82.9958 21.7429 82.9087C22.0652 82.8217 22.256 82.4898 22.1689 82.1675Z" fill="black"/>
<path d="M17.726 76.2792C17.6578 75.9524 17.3375 75.7428 17.0107 75.811C16.6839 75.8792 16.4743 76.1995 16.5425 76.5263C16.6107 76.8532 16.931 77.0628 17.2578 76.9945C17.5846 76.9263 17.7943 76.606 17.726 76.2792Z" fill="black"/>
<path d="M15.8685 71.6478C15.8048 71.3173 15.4852 71.101 15.1546 71.1647C14.8241 71.2284 14.6078 71.548 14.6715 71.8786C14.7352 72.2091 15.0548 72.4254 15.3854 72.3617C15.7159 72.298 15.9322 71.9784 15.8685 71.6478Z" fill="black"/>
<path d="M12.713 61.7557C12.6754 61.4156 12.3692 61.1704 12.0291 61.2079C11.6891 61.2455 11.4438 61.5517 11.4814 61.8918C11.519 62.2318 11.8252 62.4771 12.1652 62.4395C12.5053 62.4019 12.7505 62.0957 12.713 61.7557Z" fill="black"/>
<path d="M11.9909 51.0446C11.9539 50.71 11.6527 50.4688 11.3181 50.5058C10.9835 50.5428 10.7422 50.844 10.7792 51.1786C10.8162 51.5132 11.1174 51.7544 11.452 51.7174C11.7866 51.6805 12.0279 51.3792 11.9909 51.0446Z" fill="black"/>
<path d="M12.566 44.8629C12.5219 44.4653 12.1637 44.1786 11.7661 44.2227C11.3684 44.2669 11.0818 44.625 11.1259 45.0226C11.17 45.4203 11.5281 45.7069 11.9258 45.6628C12.3235 45.6187 12.6101 45.2606 12.566 44.8629Z" fill="black"/>
<path d="M15.6004 32.7522C15.5478 32.2222 15.0756 31.8353 14.5456 31.8879C14.0157 31.9406 13.6288 32.4128 13.6814 32.9427C13.734 33.4727 14.2063 33.8596 14.7362 33.807C15.2661 33.7544 15.6531 33.2821 15.6004 32.7522Z" fill="black"/>
<path d="M17.4496 29.1219C17.3906 28.5483 16.8777 28.1311 16.304 28.19C15.7304 28.249 15.3131 28.7619 15.3721 29.3355C15.4311 29.9092 15.944 30.3264 16.5176 30.2675C17.0913 30.2085 17.5085 29.6956 17.4496 29.1219Z" fill="black"/>
<path d="M18.7695 24.466C18.7231 23.8386 18.1769 23.3676 17.5495 23.4141C16.9221 23.4605 16.4511 24.0067 16.4975 24.6341C16.5439 25.2615 17.0902 25.7325 17.7176 25.6861C18.345 25.6397 18.816 25.0934 18.7695 24.466Z" fill="black"/>
<path d="M22.6915 18.7653C22.6495 18.1348 22.1043 17.6577 21.4738 17.6998C20.8434 17.7418 20.3663 18.2869 20.4083 18.9174C20.4503 19.5479 20.9955 20.0249 21.626 19.9829C22.2565 19.9409 22.7335 19.3957 22.6915 18.7653Z" fill="black"/>
<path d="M24.3573 15.4993C24.3201 14.8325 23.7495 14.3222 23.0828 14.3594C22.4161 14.3965 21.9057 14.9671 21.9429 15.6338C21.98 16.3005 22.5506 16.8109 23.2174 16.7737C23.8841 16.7366 24.3944 16.166 24.3573 15.4993Z" fill="black"/>
<path d="M26.5384 12.5445C26.5078 11.9134 25.9715 11.4265 25.3403 11.457C24.7092 11.4875 24.2223 12.0239 24.2528 12.6551C24.2834 13.2862 24.8197 13.7731 25.4509 13.7426C26.082 13.712 26.5689 13.1756 26.5384 12.5445Z" fill="black"/>
<path d="M27.5675 11.2931C27.5407 10.6839 27.025 10.2118 26.4158 10.2387C25.8066 10.2656 25.3345 10.7812 25.3614 11.3904C25.3883 11.9996 25.9039 12.4717 26.5131 12.4448C27.1223 12.418 27.5944 11.9023 27.5675 11.2931Z" fill="black"/>
<path d="M32.6626 102.304C32.6678 101.984 32.4125 101.72 32.0925 101.715C31.7724 101.71 31.5088 101.965 31.5037 102.285C31.4985 102.605 31.7538 102.869 32.0738 102.874C32.3939 102.879 32.6575 102.624 32.6626 102.304Z" fill="black"/>
<path d="M29.1692 101.042C29.1711 100.725 28.9155 100.466 28.5982 100.464C28.2808 100.462 28.022 100.718 28.0201 101.035C28.0181 101.352 28.2738 101.611 28.5911 101.613C28.9084 101.615 29.1672 101.359 29.1692 101.042Z" fill="black"/>
<path d="M30.039 98.3717C30.0325 98.0489 29.7655 97.7925 29.4428 97.799C29.12 97.8055 28.8636 98.0725 28.8701 98.3952C28.8766 98.718 29.1435 98.9744 29.4663 98.9679C29.7891 98.9614 30.0455 98.6945 30.039 98.3717Z" fill="black"/>
<path d="M30.2277 95.758C30.201 95.4308 29.9141 95.1871 29.5868 95.2138C29.2596 95.2404 29.0159 95.5274 29.0426 95.8546C29.0693 96.1819 29.3562 96.4256 29.6835 96.3989C30.0107 96.3722 30.2544 96.0853 30.2277 95.758Z" fill="black"/>
<path d="M29.4654 94.5582C29.4307 94.2317 29.1379 93.9952 28.8113 94.0299C28.4848 94.0647 28.2483 94.3575 28.283 94.684C28.3178 95.0105 28.6106 95.2471 28.9371 95.2123C29.2636 95.1776 29.5002 94.8848 29.4654 94.5582Z" fill="black"/>
<path d="M25.0501 88.2632C24.9836 87.9445 24.6713 87.74 24.3526 87.8065C24.0339 87.8729 23.8294 88.1852 23.8959 88.504C23.9624 88.8227 24.2747 89.0272 24.5934 88.9607C24.9121 88.8942 25.1166 88.5819 25.0501 88.2632Z" fill="black"/>
<path d="M32.1675 90.138C32.0537 89.8212 31.7046 89.6566 31.3878 89.7705C31.071 89.8843 30.9064 90.2333 31.0202 90.5502C31.134 90.867 31.4831 91.0315 31.7999 90.9177C32.1167 90.8039 32.2813 90.4548 32.1675 90.138Z" fill="black"/>
<path d="M32.6715 88.5295C32.5329 88.2287 32.1768 88.0973 31.8761 88.2358C31.5754 88.3744 31.4439 88.7305 31.5824 89.0312C31.721 89.3319 32.0771 89.4634 32.3778 89.3249C32.6786 89.1863 32.81 88.8302 32.6715 88.5295Z" fill="black"/>
<path d="M35.2718 87.3453C35.0839 87.056 34.6971 86.9738 34.4078 87.1617C34.1186 87.3495 34.0364 87.7363 34.2243 88.0256C34.4121 88.3148 34.7989 88.397 35.0882 88.2092C35.3774 88.0213 35.4596 87.6345 35.2718 87.3453Z" fill="black"/>
<path d="M21.3795 74.3055C21.2457 73.9966 20.8868 73.8547 20.5779 73.9885C20.269 74.1224 20.1271 74.4812 20.2609 74.7901C20.3948 75.099 20.7537 75.2409 21.0626 75.1071C21.3714 74.9733 21.5133 74.6144 21.3795 74.3055Z" fill="black"/>
<path d="M22.994 73.7767C22.8271 73.4718 22.4445 73.3598 22.1396 73.5268C21.8346 73.6937 21.7227 74.0762 21.8896 74.3812C22.0565 74.6862 22.439 74.7981 22.744 74.6312C23.049 74.4643 23.1609 74.0817 22.994 73.7767Z" fill="black"/>
<path d="M14.9273 59.7672C14.8357 59.4147 14.4757 59.2032 14.1232 59.2948C13.7707 59.3864 13.5592 59.7465 13.6508 60.099C13.7424 60.4515 14.1024 60.663 14.455 60.5714C14.8075 60.4797 15.019 60.1197 14.9273 59.7672Z" fill="black"/>
<path d="M15.0724 50.9042C14.9644 50.5621 14.5996 50.3724 14.2575 50.4804C13.9155 50.5884 13.7257 50.9532 13.8337 51.2953C13.9417 51.6374 14.3066 51.8271 14.6486 51.7191C14.9907 51.6111 15.1804 51.2462 15.0724 50.9042Z" fill="black"/>
<path d="M16.6096 38.548C16.5007 38.1173 16.0633 37.8564 15.6326 37.9653C15.2019 38.0741 14.941 38.5115 15.0499 38.9422C15.1587 39.3729 15.5961 39.6338 16.0268 39.525C16.4575 39.4161 16.7185 38.9787 16.6096 38.548Z" fill="black"/>
<path d="M20.5834 27.3492C20.4848 26.7474 19.9171 26.3394 19.3153 26.438C18.7135 26.5365 18.3056 27.1042 18.4041 27.706C18.5026 28.3078 19.0704 28.7158 19.6721 28.6172C20.2739 28.5187 20.6819 27.951 20.5834 27.3492Z" fill="black"/>
<path d="M20.7888 24.841C20.716 24.2161 20.1503 23.7686 19.5255 23.8414C18.9006 23.9143 18.4531 24.4799 18.5259 25.1048C18.5988 25.7297 19.1644 26.1772 19.7893 26.1043C20.4142 26.0315 20.8617 25.4659 20.7888 24.841Z" fill="black"/>
<path d="M27.3856 16.5971C27.3318 15.9731 26.7824 15.5107 26.1583 15.5645C25.5343 15.6183 25.072 16.1677 25.1257 16.7918C25.1795 17.4158 25.729 17.8781 26.353 17.8244C26.9771 17.7706 27.4394 17.2211 27.3856 16.5971Z" fill="black"/>
<path d="M28.6625 13.8745C28.6261 13.2713 28.1076 12.8118 27.5044 12.8482C26.9012 12.8845 26.4418 13.403 26.4781 14.0062C26.5145 14.6094 27.033 15.0689 27.6362 15.0325C28.2394 14.9961 28.6988 14.4776 28.6625 13.8745Z" fill="black"/>
<path d="M33.101 9.9261C33.079 9.41335 32.6455 9.01554 32.1327 9.03757C31.62 9.05959 31.2222 9.49312 31.2442 10.0059C31.2662 10.5186 31.6997 10.9164 32.2125 10.8944C32.7253 10.8724 33.1231 10.4389 33.101 9.9261Z" fill="black"/>
<path d="M35.1645 7.84145C35.1463 7.29266 34.6866 6.86257 34.1378 6.88082C33.589 6.89907 33.1589 7.35876 33.1772 7.90755C33.1954 8.45634 33.6551 8.88643 34.2039 8.86818C34.7527 8.84993 35.1828 8.39024 35.1645 7.84145Z" fill="black"/>
<path d="M33.6323 7.26613C33.6169 6.71449 33.1572 6.27977 32.6056 6.29515C32.0539 6.31053 31.6192 6.7702 31.6346 7.32184C31.65 7.87348 32.1097 8.30821 32.6613 8.29282C33.2129 8.27744 33.6477 7.81777 33.6323 7.26613Z" fill="black"/>
<path d="M38.8003 106.321C38.8137 106.001 38.5654 105.731 38.2456 105.718C37.9258 105.704 37.6557 105.953 37.6422 106.273C37.6288 106.592 37.8771 106.862 38.1969 106.876C38.5167 106.889 38.7868 106.641 38.8003 106.321Z" fill="black"/>
<path d="M35.9269 104.44C35.9372 104.106 35.675 103.828 35.3413 103.817C35.0076 103.807 34.7287 104.069 34.7185 104.403C34.7082 104.737 34.9704 105.016 35.3041 105.026C35.6378 105.036 35.9167 104.774 35.9269 104.44Z" fill="black"/>
<path d="M35.4163 102.58C35.4228 102.238 35.1507 101.955 34.8087 101.949C34.4666 101.942 34.184 102.214 34.1775 102.556C34.1709 102.898 34.443 103.181 34.7851 103.187C35.1271 103.194 35.4097 102.922 35.4163 102.58Z" fill="black"/>
<path d="M33.1495 98.1902C33.1336 97.854 32.8481 97.5942 32.5119 97.6101C32.1756 97.626 31.9159 97.9114 31.9318 98.2477C31.9476 98.5839 32.2331 98.8437 32.5694 98.8278C32.9056 98.8119 33.1653 98.5265 33.1495 98.1902Z" fill="black"/>
<path d="M33.147 96.4837C33.1138 96.1515 32.8176 95.9091 32.4853 95.9423C32.1531 95.9755 31.9107 96.2717 31.9439 96.6039C31.9771 96.9361 32.2733 97.1785 32.6055 97.1453C32.9377 97.1122 33.1802 96.8159 33.147 96.4837Z" fill="black"/>
<path d="M34.9686 95.4069C34.9121 95.0834 34.604 94.8671 34.2806 94.9236C33.9571 94.9802 33.7408 95.2883 33.7973 95.6117C33.8539 95.9352 34.162 96.1515 34.4854 96.0949C34.8089 96.0384 35.0252 95.7303 34.9686 95.4069Z" fill="black"/>
<path d="M33.2449 92.1275C33.1531 91.8151 32.8255 91.6363 32.5131 91.7281C32.2007 91.8199 32.0219 92.1475 32.1137 92.4599C32.2055 92.7723 32.5331 92.9511 32.8455 92.8593C33.1579 92.7675 33.3367 92.4399 33.2449 92.1275Z" fill="black"/>
<path d="M43.3094 92.0476C43.1377 91.771 42.7742 91.6859 42.4976 91.8576C42.221 92.0293 42.1359 92.3927 42.3076 92.6694C42.4793 92.946 42.8428 93.0311 43.1194 92.8594C43.396 92.6877 43.4811 92.3242 43.3094 92.0476Z" fill="black"/>
<path d="M45.6576 90.7825C45.4598 90.5486 45.1099 90.5193 44.876 90.717C44.6421 90.9148 44.6128 91.2647 44.8106 91.4986C45.0083 91.7325 45.3582 91.7618 45.5921 91.564C45.826 91.3663 45.8553 91.0164 45.6576 90.7825Z" fill="black"/>
<path d="M46.033 87.8026C45.7669 87.6057 45.3914 87.6618 45.1945 87.9279C44.9975 88.1941 45.0536 88.5695 45.3198 88.7665C45.5859 88.9634 45.9614 88.9073 46.1583 88.6412C46.3553 88.375 46.2992 87.9996 46.033 87.8026Z" fill="black"/>
<path d="M40.2376 86.0189C39.9835 85.7982 39.5985 85.8253 39.3778 86.0794C39.157 86.3336 39.1841 86.7185 39.4382 86.9393C39.6924 87.16 40.0774 87.133 40.2981 86.8788C40.5189 86.6247 40.4918 86.2397 40.2376 86.0189Z" fill="black"/>
<path d="M39.3306 83.5241C39.0318 83.3306 38.6327 83.416 38.4393 83.7147C38.2458 84.0135 38.3312 84.4126 38.63 84.606C38.9288 84.7995 39.3278 84.7141 39.5213 84.4153C39.7147 84.1166 39.6294 83.7175 39.3306 83.5241Z" fill="black"/>
<path d="M35.9802 80.3801C35.6413 80.2004 35.221 80.3294 35.0413 80.6682C34.8616 81.0071 34.9906 81.4274 35.3295 81.6071C35.6683 81.7868 36.0887 81.6578 36.2683 81.3189C36.448 80.9801 36.319 80.5597 35.9802 80.3801Z" fill="black"/>
<path d="M20.3079 63.3535C20.0821 63.0608 19.6617 63.0065 19.3689 63.2323C19.0762 63.4581 19.0219 63.8785 19.2477 64.1712C19.4735 64.464 19.8939 64.5183 20.1866 64.2925C20.4794 64.0667 20.5337 63.6463 20.3079 63.3535Z" fill="black"/>
<path d="M18.766 46.9783C18.5347 46.6251 18.0609 46.5263 17.7077 46.7575C17.3545 46.9888 17.2557 47.4626 17.487 47.8158C17.7182 48.169 18.192 48.2678 18.5452 48.0365C18.8984 47.8052 18.9972 47.3314 18.766 46.9783Z" fill="black"/>
<path d="M20.8358 32.4316C20.669 31.9317 20.1285 31.6616 19.6286 31.8285C19.1286 31.9953 18.8586 32.5358 19.0254 33.0357C19.1922 33.5356 19.7327 33.8057 20.2327 33.6389C20.7326 33.472 21.0026 32.9315 20.8358 32.4316Z" fill="black"/>
<path d="M25.026 23.7733C24.9024 23.2071 24.3433 22.8483 23.7772 22.9719C23.2111 23.0954 22.8523 23.6545 22.9758 24.2206C23.0994 24.7867 23.6584 25.1455 24.2246 25.022C24.7907 24.8985 25.1495 24.3394 25.026 23.7733Z" fill="black"/>
<path d="M29.9706 17.9415C29.8769 17.3808 29.3466 17.0022 28.7859 17.0959C28.2253 17.1895 27.8467 17.7199 27.9403 18.2805C28.0339 18.8412 28.5643 19.2198 29.1249 19.1261C29.6856 19.0325 30.0642 18.5021 29.9706 17.9415Z" fill="black"/>
<path d="M33.4319 13.9818C33.3679 13.4253 32.8649 13.0261 32.3084 13.0902C31.7519 13.1542 31.3528 13.6572 31.4168 14.2137C31.4808 14.7701 31.9839 15.1693 32.5403 15.1053C33.0968 15.0412 33.496 14.5382 33.4319 13.9818Z" fill="black"/>
<path d="M35.9513 10.823C35.9141 10.3084 35.4668 9.92128 34.9522 9.95841C34.4375 9.99554 34.0504 10.4428 34.0876 10.9575C34.1247 11.4721 34.572 11.8592 35.0866 11.8221C35.6013 11.785 35.9884 11.3377 35.9513 10.823Z" fill="black"/>
<path d="M36.2299 7.38582C36.2126 6.84528 35.7603 6.42119 35.2197 6.43858C34.6792 6.45597 34.2551 6.90826 34.2725 7.4488C34.2899 7.98934 34.7422 8.41343 35.2827 8.39604C35.8232 8.37865 36.2473 7.92636 36.2299 7.38582Z" fill="black"/>
<path d="M37.6614 5.06767C37.6521 4.57385 37.2443 4.18105 36.7505 4.19034C36.2566 4.19963 35.8638 4.60748 35.8731 5.1013C35.8824 5.59513 36.2903 5.98792 36.7841 5.97864C37.2779 5.96935 37.6707 5.56149 37.6614 5.06767Z" fill="black"/>
<path d="M41.3134 2.94879C41.3096 2.53215 40.9687 2.19751 40.5521 2.20134C40.1355 2.20517 39.8008 2.54603 39.8046 2.96266C39.8085 3.3793 40.1493 3.71394 40.566 3.71011C40.9826 3.70628 41.3172 3.36542 41.3134 2.94879Z" fill="black"/>
<path d="M42.8255 106.751C42.8397 106.443 42.601 106.181 42.2923 106.167C41.9835 106.153 41.7218 106.391 41.7076 106.7C41.6934 107.009 41.9322 107.27 42.2409 107.285C42.5496 107.299 42.8114 107.06 42.8255 106.751Z" fill="black"/>
<path d="M43.6534 106.35C43.6672 106.041 43.428 105.78 43.1193 105.766C42.8106 105.753 42.5491 105.992 42.5354 106.3C42.5216 106.609 42.7608 106.871 43.0695 106.884C43.3782 106.898 43.6396 106.659 43.6534 106.35Z" fill="black"/>
<path d="M38.2589 103.266C38.2666 102.943 38.0111 102.675 37.6884 102.667C37.3656 102.66 37.0978 102.915 37.0901 103.238C37.0825 103.561 37.3379 103.828 37.6607 103.836C37.9834 103.844 38.2513 103.588 38.2589 103.266Z" fill="black"/>
<path d="M39.7603 101.685C39.7581 101.367 39.499 101.112 39.1817 101.114C38.8644 101.116 38.609 101.375 38.6113 101.693C38.6135 102.01 38.8726 102.265 39.1899 102.263C39.5072 102.261 39.7626 102.002 39.7603 101.685Z" fill="black"/>
<path d="M42.3077 100.127C42.285 99.8102 42.0099 99.572 41.6934 99.5947C41.3769 99.6175 41.1388 99.8925 41.1615 100.209C41.1843 100.526 41.4593 100.764 41.7758 100.741C42.0923 100.718 42.3304 100.443 42.3077 100.127Z" fill="black"/>
<path d="M39.7196 97.1084C39.6639 96.7932 39.3632 96.5828 39.048 96.6385C38.7328 96.6942 38.5225 96.9949 38.5782 97.31C38.6339 97.6252 38.9345 97.8356 39.2497 97.7799C39.5649 97.7242 39.7753 97.4235 39.7196 97.1084Z" fill="black"/>
<path d="M56.1402 93.7505C55.971 93.4853 55.6188 93.4076 55.3537 93.5768C55.0885 93.7461 55.0108 94.0982 55.1801 94.3634C55.3493 94.6285 55.7015 94.7063 55.9666 94.537C56.2317 94.3678 56.3095 94.0156 56.1402 93.7505Z" fill="black"/>
<path d="M52.9828 93.1356C52.7973 92.8748 52.4354 92.8138 52.1746 92.9994C51.9138 93.185 51.8529 93.5468 52.0384 93.8076C52.224 94.0684 52.5859 94.1294 52.8466 93.9438C53.1074 93.7582 53.1684 93.3964 52.9828 93.1356Z" fill="black"/>
<path d="M63.7479 86.9638C63.4442 86.8463 63.1028 86.9971 62.9852 87.3007C62.8676 87.6043 63.0185 87.9458 63.3221 88.0634C63.6257 88.1809 63.9672 88.0301 64.0848 87.7265C64.2023 87.4229 64.0515 87.0814 63.7479 86.9638Z" fill="black"/>
<path d="M64.9891 85.2037C64.6827 85.1457 64.3873 85.347 64.3293 85.6533C64.2713 85.9597 64.4726 86.2551 64.7789 86.3131C65.0853 86.3711 65.3807 86.1698 65.4387 85.8634C65.4967 85.5571 65.2954 85.2617 64.9891 85.2037Z" fill="black"/>
<path d="M82.5334 53.6509C82.5018 54.1521 82.8825 54.584 83.3837 54.6156C83.8848 54.6472 84.3168 54.2665 84.3484 53.7653C84.38 53.2641 83.9993 52.8322 83.4981 52.8006C82.9969 52.769 82.565 53.1497 82.5334 53.6509Z" fill="black"/>
<path d="M62.0893 81.8829C61.7566 82.0095 61.5895 82.3818 61.7161 82.7145C61.8427 83.0471 62.215 83.2142 62.5477 83.0876C62.8804 82.961 63.0474 82.5887 62.9209 82.2561C62.7943 81.9234 62.422 81.7563 62.0893 81.8829Z" fill="black"/>
<path d="M36.1114 78.6103C35.7392 78.5069 35.3537 78.7248 35.2502 79.097C35.1468 79.4692 35.3647 79.8547 35.7369 79.9582C36.1091 80.0616 36.4947 79.8437 36.5981 79.4715C36.7015 79.0993 36.4836 78.7137 36.1114 78.6103Z" fill="black"/>
<path d="M23.8135 65.3023C23.4964 65.0915 23.0684 65.1778 22.8577 65.495C22.647 65.8121 22.7332 66.24 23.0504 66.4508C23.3675 66.6615 23.7955 66.5752 24.0062 66.2581C24.2169 65.9409 24.1307 65.513 23.8135 65.3023Z" fill="black"/>
<path d="M20.3223 43.1562C20.0507 42.7875 19.5315 42.7088 19.1627 42.9804C18.7939 43.2521 18.7152 43.7713 18.9869 44.1401C19.2586 44.5089 19.7778 44.5876 20.1465 44.3159C20.5153 44.0442 20.594 43.525 20.3223 43.1562Z" fill="black"/>
<path d="M22.6556 36.1254C22.3708 35.6885 21.7857 35.5653 21.3489 35.8501C20.912 36.1349 20.7887 36.7199 21.0735 37.1568C21.3584 37.5937 21.9434 37.7169 22.3802 37.4321C22.8171 37.1473 22.9404 36.5623 22.6556 36.1254Z" fill="black"/>
<path d="M26.2218 25.2184C26.0448 24.6724 25.4586 24.3734 24.9127 24.5505C24.3668 24.7276 24.0678 25.3137 24.2448 25.8596C24.4219 26.4055 25.008 26.7046 25.5539 26.5275C26.0999 26.3504 26.3989 25.7643 26.2218 25.2184Z" fill="black"/>
<path d="M34.781 16.4932C34.6541 15.942 34.1043 15.598 33.5531 15.725C33.0019 15.8519 32.6579 16.4017 32.7849 16.9529C32.9118 17.5041 33.4616 17.8481 34.0128 17.7211C34.564 17.5942 34.908 17.0444 34.781 16.4932Z" fill="black"/>
<path d="M38.1422 12.3838C38.0777 11.9247 37.6533 11.6048 37.1942 11.6693C36.7352 11.7337 36.4153 12.1581 36.4798 12.6172C36.5442 13.0762 36.9686 13.3961 37.4277 13.3317C37.8867 13.2672 38.2066 12.8428 38.1422 12.3838Z" fill="black"/>
<path d="M41.8983 9.07854C41.8601 8.64426 41.477 8.3232 41.0427 8.36144C40.6084 8.39968 40.2874 8.78274 40.3256 9.21702C40.3638 9.65131 40.7469 9.97237 41.1812 9.93413C41.6155 9.89589 41.9365 9.51283 41.8983 9.07854Z" fill="black"/>
<path d="M43.1421 6.18243C43.1245 5.76339 42.7705 5.43802 42.3514 5.45569C41.9324 5.47336 41.607 5.82739 41.6247 6.24642C41.6423 6.66546 41.9964 6.99083 42.4154 6.97316C42.8344 6.95549 43.1598 6.60147 43.1421 6.18243Z" fill="black"/>
<path d="M41.0063 5.60872C40.994 5.19778 40.6509 4.87461 40.2399 4.88691C39.829 4.89922 39.5058 5.24233 39.5181 5.65328C39.5304 6.06423 39.8736 6.38739 40.2845 6.37509C40.6954 6.36279 41.0186 6.01967 41.0063 5.60872Z" fill="black"/>
<path d="M41.4133 3.60252C41.4074 3.19143 41.0694 2.86295 40.6583 2.86884C40.2472 2.87473 39.9187 3.21276 39.9246 3.62385C39.9305 4.03494 40.2685 4.36342 40.6796 4.35753C41.0907 4.35164 41.4192 4.01361 41.4133 3.60252Z" fill="black"/>
<path d="M48.1323 108.097C48.1483 107.8 47.92 107.545 47.6225 107.529C47.3249 107.513 47.0707 107.742 47.0547 108.039C47.0387 108.337 47.267 108.591 47.5646 108.607C47.8622 108.623 48.1164 108.395 48.1323 108.097Z" fill="black"/>
<path d="M45.6143 106.454C45.6284 106.148 45.3918 105.889 45.0859 105.875C44.7799 105.861 44.5205 106.097 44.5064 106.403C44.4923 106.709 44.7289 106.969 45.0349 106.983C45.3408 106.997 45.6003 106.76 45.6143 106.454Z" fill="black"/>
<path d="M44.1312 103.988C44.139 103.665 43.8837 103.397 43.5609 103.389C43.2382 103.382 42.9702 103.637 42.9625 103.96C42.9547 104.283 43.21 104.55 43.5328 104.558C43.8555 104.566 44.1235 104.311 44.1312 103.988Z" fill="black"/>
<path d="M51.037 101.634C51.0191 101.326 50.7544 101.09 50.4459 101.108C50.1374 101.126 49.9018 101.391 49.9198 101.699C49.9378 102.008 50.2024 102.243 50.5109 102.225C50.8195 102.207 51.055 101.943 51.037 101.634Z" fill="black"/>
<path d="M51.9875 99.9663C51.945 99.6491 51.6533 99.4264 51.3361 99.4689C51.0188 99.5115 50.7961 99.8031 50.8387 100.12C50.8812 100.438 51.1729 100.66 51.4901 100.618C51.8074 100.575 52.0301 100.284 51.9875 99.9663Z" fill="black"/>
<path d="M54.2507 97.4981C54.1678 97.209 53.8663 97.0418 53.5772 97.1247C53.288 97.2076 53.1208 97.5091 53.2037 97.7982C53.2866 98.0874 53.5881 98.2546 53.8773 98.1717C54.1664 98.0888 54.3336 97.7873 54.2507 97.4981Z" fill="black"/>
<path d="M68.0579 90.2427C67.8351 89.9831 67.444 89.9533 67.1843 90.1761C66.9247 90.3989 66.8949 90.79 67.1177 91.0497C67.3405 91.3093 67.7316 91.3392 67.9913 91.1163C68.2509 90.8935 68.2808 90.5024 68.0579 90.2427Z" fill="black"/>
<path d="M73.9204 85.6339C73.6426 85.4342 73.2555 85.4976 73.0558 85.7754C72.8561 86.0533 72.9195 86.4404 73.1974 86.64C73.4752 86.8397 73.8623 86.7763 74.062 86.4985C74.2617 86.2206 74.1983 85.8335 73.9204 85.6339Z" fill="black"/>
<path d="M84.2348 69.5306C83.8006 69.6108 83.5137 70.0277 83.5939 70.4619C83.6741 70.896 84.0911 71.1829 84.5252 71.1027C84.9594 71.0225 85.2463 70.6055 85.1661 70.1714C85.0859 69.7373 84.6689 69.4504 84.2348 69.5306Z" fill="black"/>
<path d="M66.0201 39.6809C66.4586 40.1434 67.1891 40.1629 67.6516 39.7244C68.1142 39.2859 68.1337 38.5554 67.6952 38.0928C67.2566 37.6303 66.5262 37.6108 66.0636 38.0493C65.601 38.4878 65.5815 39.2183 66.0201 39.6809Z" fill="black"/>
<path d="M72.5005 42.8586C73.0208 43.1492 73.6782 42.963 73.9689 42.4427C74.2595 41.9224 74.0733 41.2649 73.553 40.9743C73.0327 40.6837 72.3752 40.8699 72.0846 41.3902C71.7939 41.9105 71.9801 42.5679 72.5005 42.8586Z" fill="black"/>
<path d="M77.8623 47.3948C78.2615 47.7916 78.9068 47.7896 79.3036 47.3904C79.7004 46.9911 79.6984 46.3458 79.2992 45.949C78.8999 45.5522 78.2546 45.5542 77.8578 45.9535C77.461 46.3527 77.463 46.9981 77.8623 47.3948Z" fill="black"/>
<path d="M60.1805 80.8676C59.881 81.0891 59.8177 81.5114 60.0391 81.811C60.2606 82.1105 60.6829 82.1738 60.9824 81.9524C61.282 81.7309 61.3453 81.3086 61.1238 81.009C60.9024 80.7095 60.48 80.6462 60.1805 80.8676Z" fill="black"/>
<path d="M37.4748 77.3042C37.0639 77.3194 36.7432 77.6648 36.7584 78.0756C36.7736 78.4865 37.119 78.8072 37.5299 78.792C37.9407 78.7768 38.2615 78.4314 38.2463 78.0205C38.231 77.6097 37.8857 77.2889 37.4748 77.3042Z" fill="black"/>
<path d="M22.7808 56.3515C22.4166 56.1607 21.9667 56.3011 21.7758 56.6653C21.585 57.0294 21.7254 57.4793 22.0896 57.6702C22.4537 57.8611 22.9036 57.7206 23.0945 57.3565C23.2854 56.9923 23.1449 56.5424 22.7808 56.3515Z" fill="black"/>
<path d="M26.6243 29.471C26.3359 28.9813 25.705 28.8181 25.2152 29.1066C24.7254 29.395 24.5623 30.0259 24.8507 30.5157C25.1392 31.0055 25.7701 31.1687 26.2599 30.8802C26.7496 30.5917 26.9128 29.9608 26.6243 29.471Z" fill="black"/>
<path d="M32.7914 20.2845C32.6066 19.7675 32.0376 19.4982 31.5205 19.683C31.0035 19.8678 30.7342 20.4368 30.919 20.9539C31.1038 21.4709 31.6728 21.7402 32.1899 21.5554C32.7069 21.3706 32.9762 20.8016 32.7914 20.2845Z" fill="black"/>
<path d="M37.9923 14.4555C37.8881 13.9755 37.4146 13.6709 36.9346 13.7751C36.4546 13.8793 36.15 14.3529 36.2542 14.8329C36.3584 15.3128 36.832 15.6174 37.312 15.5132C37.7919 15.409 38.0965 14.9354 37.9923 14.4555Z" fill="black"/>
<path d="M40.504 11.6685C40.4362 11.2183 40.0163 10.9083 39.5661 10.9761C39.1159 11.0439 38.8059 11.4638 38.8737 11.914C38.9415 12.3642 39.3614 12.6742 39.8116 12.6064C40.2618 12.5386 40.5718 12.1187 40.504 11.6685Z" fill="black"/>
<path d="M43.7403 8.3674C43.7025 7.92753 43.3153 7.60157 42.8754 7.63934C42.4356 7.67711 42.1096 8.06431 42.1474 8.50418C42.1852 8.94405 42.5724 9.27001 43.0122 9.23224C43.4521 9.19447 43.7781 8.80727 43.7403 8.3674Z" fill="black"/>
<path d="M47.3893 6.75965C47.3582 6.33862 46.9917 6.0225 46.5707 6.05357C46.1497 6.08464 45.8336 6.45114 45.8646 6.87216C45.8957 7.29319 46.2622 7.60931 46.6832 7.57824C47.1042 7.54717 47.4204 7.18067 47.3893 6.75965Z" fill="black"/>
<path d="M48.2919 4.62493C48.2742 4.21417 47.9269 3.89552 47.5162 3.91319C47.1054 3.93087 46.7868 4.27818 46.8044 4.68893C46.8221 5.09968 47.1694 5.41834 47.5802 5.40066C47.9909 5.38299 48.3096 5.03568 48.2919 4.62493Z" fill="black"/>
<path d="M47.7842 1.60466C47.7804 1.22941 47.4732 0.928265 47.098 0.932022C46.7227 0.93578 46.4216 1.24302 46.4253 1.61826C46.4291 1.99351 46.7363 2.29466 47.1116 2.2909C47.4868 2.28714 47.788 1.9799 47.7842 1.60466Z" fill="black"/>
<path d="M53.6757 107.922C53.6926 107.619 53.4605 107.36 53.1575 107.343C52.8544 107.326 52.5951 107.558 52.5782 107.861C52.5614 108.165 52.7934 108.424 53.0964 108.441C53.3995 108.458 53.6588 108.226 53.6757 107.922Z" fill="black"/>
<path d="M49.6623 106.819C49.6773 106.519 49.4459 106.263 49.1455 106.248C48.8451 106.233 48.5895 106.465 48.5745 106.765C48.5596 107.065 48.791 107.321 49.0914 107.336C49.3918 107.351 49.6474 107.119 49.6623 106.819Z" fill="black"/>
<path d="M50.3768 103.51C50.3776 103.207 50.1322 102.96 49.8286 102.959C49.5251 102.958 49.2784 103.204 49.2776 103.507C49.2768 103.811 49.5222 104.057 49.8258 104.058C50.1293 104.059 50.376 103.814 50.3768 103.51Z" fill="black"/>
<path d="M50.6044 103.101C50.6018 102.797 50.3536 102.553 50.0501 102.556C49.7466 102.558 49.5027 102.807 49.5053 103.11C49.5079 103.414 49.7561 103.658 50.0596 103.655C50.3631 103.652 50.607 103.404 50.6044 103.101Z" fill="black"/>
<path d="M54.6002 99.9427C54.5579 99.6338 54.2732 99.4177 53.9643 99.46C53.6553 99.5023 53.4392 99.787 53.4815 100.096C53.5238 100.405 53.8085 100.621 54.1174 100.579C54.4263 100.536 54.6425 100.252 54.6002 99.9427Z" fill="black"/>
<path d="M58.7119 98.1432C58.6444 97.8445 58.3475 97.6571 58.0487 97.7246C57.75 97.7922 57.5626 98.0891 57.6301 98.3878C57.6977 98.6866 57.9946 98.874 58.2933 98.8064C58.5921 98.7389 58.7795 98.442 58.7119 98.1432Z" fill="black"/>
<path d="M71.0208 91.5787C70.87 91.2901 70.5138 91.1785 70.2252 91.3294C69.9367 91.4802 69.8251 91.8364 69.9759 92.125C70.1268 92.4135 70.483 92.5251 70.7715 92.3742C71.0601 92.2234 71.1717 91.8672 71.0208 91.5787Z" fill="black"/>
<path d="M78.0834 83.2141C77.7919 83.0003 77.3823 83.0632 77.1685 83.3546C76.9547 83.646 77.0175 84.0556 77.309 84.2695C77.6004 84.4833 78.01 84.4204 78.2238 84.129C78.4377 83.8376 78.3748 83.428 78.0834 83.2141Z" fill="black"/>
<path d="M82.5018 41.2898C82.1905 41.648 82.2285 42.1908 82.5867 42.5021C82.945 42.8134 83.4877 42.7754 83.799 42.4171C84.1103 42.0589 84.0723 41.5161 83.7141 41.2048C83.3559 40.8935 82.8131 40.9316 82.5018 41.2898Z" fill="black"/>
<path d="M53.2392 47.3428C53.8644 47.7002 54.661 47.4831 55.0184 46.8578C55.3758 46.2326 55.1586 45.436 54.5334 45.0786C53.9081 44.7213 53.1116 44.9384 52.7542 45.5636C52.3968 46.1889 52.6139 46.9855 53.2392 47.3428Z" fill="black"/>
<path d="M51.9044 63.0234C52.4262 62.3952 52.34 61.4628 51.7117 60.9409C51.0834 60.419 50.1511 60.5053 49.6292 61.1336C49.1073 61.7618 49.1936 62.6942 49.8218 63.2161C50.4501 63.738 51.3825 63.6517 51.9044 63.0234Z" fill="black"/>
<path d="M60.3067 61.828C59.6641 61.404 58.7995 61.5812 58.3755 62.2237C57.9515 62.8663 58.1287 63.7309 58.7713 64.1549C59.4138 64.5789 60.2784 64.4017 60.7024 63.7591C61.1264 63.1166 60.9492 62.2519 60.3067 61.828Z" fill="black"/>
<path d="M71.2892 72.0345C71.4869 72.4871 72.0141 72.6938 72.4667 72.4961C72.9193 72.2984 73.126 71.7712 72.9283 71.3186C72.7306 70.866 72.2034 70.6593 71.7507 70.857C71.2981 71.0547 71.0915 71.5819 71.2892 72.0345Z" fill="black"/>
<path d="M35.0458 72.1428C34.6632 72.3078 34.4868 72.7517 34.6518 73.1343C34.8168 73.5169 35.2607 73.6933 35.6433 73.5283C36.0259 73.3633 36.2023 72.9194 36.0373 72.5368C35.8723 72.1542 35.4284 71.9778 35.0458 72.1428Z" fill="black"/>
<path d="M24.8287 50.3432C24.3997 50.2276 23.9583 50.4816 23.8427 50.9105C23.7271 51.3395 23.9812 51.7809 24.4101 51.8965C24.8391 52.0121 25.2805 51.7581 25.3961 51.3291C25.5117 50.9002 25.2576 50.4587 24.8287 50.3432Z" fill="black"/>
<path d="M28.2992 30.5861C27.9256 30.1432 27.2637 30.0871 26.8208 30.4607C26.3779 30.8343 26.3217 31.4963 26.6954 31.9392C27.069 32.3821 27.7309 32.4382 28.1738 32.0646C28.6167 31.691 28.6729 31.029 28.2992 30.5861Z" fill="black"/>
<path d="M34.8983 20.6877C34.666 20.1962 34.0793 19.9862 33.5878 20.2185C33.0964 20.4509 32.8864 21.0376 33.1187 21.529C33.351 22.0204 33.9378 22.2305 34.4292 21.9982C34.9206 21.7658 35.1306 21.1791 34.8983 20.6877Z" fill="black"/>
<path d="M43.7556 12.7895C43.6465 12.356 43.2066 12.0931 42.7731 12.2022C42.3396 12.3113 42.0767 12.7512 42.1858 13.1846C42.2949 13.6181 42.7348 13.8811 43.1683 13.772C43.6018 13.6628 43.8647 13.223 43.7556 12.7895Z" fill="black"/>
<path d="M44.9424 11.7865C44.849 11.3663 44.4327 11.1013 44.0125 11.1947C43.5923 11.2881 43.3274 11.7044 43.4208 12.1246C43.5141 12.5448 43.9305 12.8098 44.3507 12.7164C44.7709 12.623 45.0358 12.2067 44.9424 11.7865Z" fill="black"/>
<path d="M50.0558 7.27583C50.0134 6.86689 49.6475 6.56974 49.2386 6.61214C48.8296 6.65453 48.5325 7.02041 48.5749 7.42935C48.6173 7.8383 48.9832 8.13544 49.3921 8.09305C49.8011 8.05065 50.0982 7.68477 50.0558 7.27583Z" fill="black"/>
<path d="M52.6105 5.54428C52.5823 5.17008 52.2562 4.88951 51.882 4.91762C51.5078 4.94573 51.2272 5.27188 51.2553 5.64608C51.2834 6.02029 51.6096 6.30086 51.9838 6.27275C52.358 6.24464 52.6386 5.91849 52.6105 5.54428Z" fill="black"/>
<path d="M50.5429 4.44564C50.5236 4.05154 50.1885 3.74767 49.7944 3.76694C49.4003 3.78621 49.0965 4.12132 49.1157 4.51543C49.135 4.90953 49.4701 5.2134 49.8642 5.19413C50.2583 5.17486 50.5622 4.83975 50.5429 4.44564Z" fill="black"/>
<path d="M51.0367 1.15107C51.0321 0.786877 50.7332 0.495351 50.369 0.499931C50.0048 0.504512 49.7133 0.803465 49.7178 1.16766C49.7224 1.53186 50.0214 1.82338 50.3856 1.8188C50.7498 1.81422 51.0413 1.51527 51.0367 1.15107Z" fill="black"/>
<path d="M57.0521 107.893C57.0691 107.595 56.8416 107.34 56.5441 107.323C56.2466 107.306 55.9916 107.534 55.9747 107.831C55.9577 108.129 56.1851 108.384 56.4826 108.401C56.7801 108.418 57.0351 108.19 57.0521 107.893Z" fill="black"/>
<path d="M55.2973 106.79C55.3132 106.487 55.0804 106.228 54.7773 106.213C54.4742 106.197 54.2156 106.429 54.1996 106.733C54.1837 107.036 54.4165 107.294 54.7196 107.31C55.0227 107.326 55.2813 107.093 55.2973 106.79Z" fill="black"/>
<path d="M56.4599 105.382C56.4719 105.085 56.2402 104.833 55.9424 104.822C55.6446 104.81 55.3936 105.041 55.3816 105.339C55.3697 105.637 55.6014 105.888 55.8991 105.9C56.1969 105.912 56.448 105.68 56.4599 105.382Z" fill="black"/>
<path d="M63.5829 100.837C63.5659 100.536 63.3087 100.307 63.0084 100.324C62.7081 100.341 62.4785 100.598 62.4955 100.898C62.5125 101.199 62.7698 101.428 63.0701 101.411C63.3703 101.394 63.6 101.137 63.5829 100.837Z" fill="black"/>
<path d="M66.1449 97.7865C66.0899 97.46 65.7805 97.24 65.454 97.2951C65.1275 97.3501 64.9075 97.6594 64.9626 97.9859C65.0176 98.3124 65.327 98.5325 65.6535 98.4774C65.98 98.4223 66.2 98.113 66.1449 97.7865Z" fill="black"/>
<path d="M70.3357 94.2684C70.2354 93.9413 69.8889 93.7574 69.5618 93.8578C69.2347 93.9581 69.0508 94.3046 69.1511 94.6317C69.2515 94.9588 69.598 95.1427 69.9251 95.0423C70.2522 94.942 70.436 94.5955 70.3357 94.2684Z" fill="black"/>
<path d="M87.5865 74.3682C87.2739 74.1275 86.8253 74.1859 86.5846 74.4986C86.344 74.8113 86.4024 75.2599 86.715 75.5006C87.0277 75.7412 87.4763 75.6828 87.717 75.3701C87.9576 75.0575 87.8992 74.6089 87.5865 74.3682Z" fill="black"/>
<path d="M89.9023 61.7945C89.4941 61.7452 89.1233 62.0362 89.074 62.4444C89.0248 62.8525 89.3158 63.2233 89.724 63.2726C90.1321 63.3218 90.5029 63.0308 90.5522 62.6227C90.6014 62.2145 90.3104 61.8437 89.9023 61.7945Z" fill="black"/>
<path d="M54.6531 41.2799C54.9191 41.8864 55.6264 42.1623 56.2328 41.8963C56.8393 41.6303 57.1152 40.923 56.8492 40.3165C56.5832 39.7101 55.8759 39.4341 55.2694 39.7002C54.663 39.9662 54.3871 40.6735 54.6531 41.2799Z" fill="black"/>
<path d="M52.677 42.7827C52.9868 43.3991 53.7376 43.6476 54.3539 43.3378C54.9702 43.028 55.2187 42.2772 54.9089 41.6608C54.5991 41.0445 53.8483 40.796 53.232 41.1058C52.6157 41.4156 52.3672 42.1664 52.677 42.7827Z" fill="black"/>
<path d="M65.6541 68.5663C65.9877 68.0007 65.7996 67.2717 65.234 66.938C64.6683 66.6044 63.9393 66.7926 63.6057 67.3582C63.2721 67.9239 63.4602 68.6529 64.0259 68.9865C64.5915 69.3201 65.3205 69.132 65.6541 68.5663Z" fill="black"/>
<path d="M66.1396 56.6766C65.4403 56.8488 65.013 57.5553 65.1852 58.2545C65.3574 58.9538 66.0639 59.3811 66.7632 59.2089C67.4625 59.0367 67.8898 58.3302 67.7175 57.6309C67.5453 56.9316 66.8388 56.5043 66.1396 56.6766Z" fill="black"/>
<path d="M76.2746 62.5908C76.8511 62.6072 77.3316 62.1531 77.348 61.5767C77.3643 61.0002 76.9103 60.5196 76.3338 60.5033C75.7574 60.487 75.2768 60.941 75.2605 61.5175C75.2441 62.0939 75.6982 62.5745 76.2746 62.5908Z" fill="black"/>
<path d="M32.8611 68.1764C32.466 68.3854 32.3151 68.8751 32.524 69.2703C32.733 69.6654 33.2227 69.8164 33.6179 69.6074C34.013 69.3985 34.164 68.9087 33.955 68.5136C33.746 68.1184 33.2563 67.9675 32.8611 68.1764Z" fill="black"/>
<path d="M26.0541 51.7342C25.5948 51.697 25.1923 52.0392 25.1551 52.4985C25.1179 52.9578 25.4601 53.3603 25.9194 53.3975C26.3787 53.4347 26.7812 53.0925 26.8184 52.6332C26.8556 52.1739 26.5134 51.7714 26.0541 51.7342Z" fill="black"/>
<path d="M37.8349 23.084C37.4825 22.6811 36.8701 22.6401 36.4672 22.9926C36.0643 23.345 36.0234 23.9573 36.3758 24.3602C36.7283 24.7632 37.3406 24.8041 37.7435 24.4516C38.1464 24.0992 38.1873 23.4869 37.8349 23.084Z" fill="black"/>
<path d="M40.6348 20.1528C40.3345 19.7264 39.7454 19.6243 39.319 19.9246C38.8927 20.225 38.7905 20.814 39.0909 21.2404C39.3912 21.6667 39.9803 21.7689 40.4066 21.4685C40.833 21.1682 40.9351 20.5791 40.6348 20.1528Z" fill="black"/>
<path d="M47.3051 14.5887C47.1369 14.1985 46.6842 14.0185 46.294 14.1866C45.9037 14.3548 45.7237 14.8075 45.8919 15.1977C46.0601 15.588 46.5128 15.768 46.903 15.5998C47.2933 15.4316 47.4733 14.9789 47.3051 14.5887Z" fill="black"/>
<path d="M52.5963 9.5309C52.5149 9.13354 52.1267 8.87739 51.7294 8.95879C51.332 9.04019 51.0759 9.4283 51.1573 9.82566C51.2387 10.223 51.6268 10.4792 52.0242 10.3978C52.4215 10.3164 52.6777 9.92826 52.5963 9.5309Z" fill="black"/>
<path d="M55.3824 7.6934C55.3262 7.314 54.973 7.05198 54.5936 7.10818C54.2142 7.16437 53.9522 7.51749 54.0084 7.89689C54.0646 8.27629 54.4177 8.53831 54.7971 8.48212C55.1765 8.42592 55.4385 8.0728 55.3824 7.6934Z" fill="black"/>
<path d="M55.1629 4.8986C55.1367 4.53809 54.8231 4.26714 54.4626 4.29341C54.1021 4.31968 53.8312 4.63323 53.8574 4.99374C53.8837 5.35425 54.1972 5.6252 54.5578 5.59893C54.9183 5.57265 55.1892 5.25911 55.1629 4.8986Z" fill="black"/>
<path d="M55.4871 4.10309C55.4647 3.73955 55.1519 3.46296 54.7884 3.48529C54.4248 3.50763 54.1483 3.82045 54.1706 4.18398C54.1929 4.54752 54.5057 4.82412 54.8693 4.80178C55.2328 4.77945 55.5094 4.46663 55.4871 4.10309Z" fill="black"/>
<path d="M57.8562 1.81137C57.844 1.4722 57.5591 1.20715 57.22 1.21938C56.8808 1.2316 56.6158 1.51646 56.628 1.85563C56.6402 2.1948 56.9251 2.45985 57.2642 2.44763C57.6034 2.4354 57.8684 2.15054 57.8562 1.81137Z" fill="black"/>
<path d="M63.1087 108.984C63.1274 108.681 62.897 108.421 62.5941 108.402C62.2911 108.383 62.0304 108.614 62.0117 108.917C61.9929 109.22 62.2234 109.48 62.5263 109.499C62.8292 109.518 63.09 109.287 63.1087 108.984Z" fill="black"/>
<path d="M60.7575 106.164C60.7735 105.861 60.5407 105.602 60.2376 105.586C59.9345 105.571 59.6758 105.803 59.6599 106.106C59.644 106.41 59.8768 106.668 60.1799 106.684C60.483 106.7 60.7416 106.467 60.7575 106.164Z" fill="black"/>
<path d="M65.5742 104.063C65.5858 103.754 65.3449 103.494 65.0361 103.482C64.7272 103.471 64.4675 103.712 64.4559 104.021C64.4442 104.329 64.6852 104.589 64.994 104.601C65.3028 104.612 65.5626 104.371 65.5742 104.063Z" fill="black"/>
<path d="M63.3638 102.294C63.3608 101.99 63.1123 101.747 62.8088 101.75C62.5053 101.753 62.2617 102.001 62.2647 102.305C62.2677 102.608 62.5162 102.852 62.8197 102.849C63.1232 102.846 63.3668 102.597 63.3638 102.294Z" fill="black"/>
<path d="M69.9408 98.2163C69.9096 97.8922 69.6216 97.6548 69.2975 97.686C68.9734 97.7172 68.7359 98.0052 68.7671 98.3293C68.7983 98.6534 69.0863 98.8908 69.4104 98.8596C69.7345 98.8284 69.972 98.5404 69.9408 98.2163Z" fill="black"/>
<path d="M77.4048 89.6609C77.2779 89.355 76.9271 89.2099 76.6213 89.3367C76.3154 89.4636 76.1703 89.8144 76.2972 90.1202C76.424 90.4261 76.7748 90.5712 77.0806 90.4443C77.3865 90.3175 77.5316 89.9667 77.4048 89.6609Z" fill="black"/>
<path d="M86.3077 77.7797C86.0638 77.5281 85.6621 77.5218 85.4104 77.7657C85.1588 78.0096 85.1525 78.4113 85.3964 78.6629C85.6403 78.9146 86.042 78.9208 86.2936 78.677C86.5453 78.4331 86.5515 78.0314 86.3077 77.7797Z" fill="black"/>
<path d="M91.4348 58.8949C91.0383 58.797 90.6375 59.039 90.5396 59.4354C90.4417 59.8319 90.6837 60.2327 91.0801 60.3306C91.4766 60.4285 91.8774 60.1865 91.9753 59.7901C92.0732 59.3936 91.8312 58.9928 91.4348 58.8949Z" fill="black"/>
<path d="M60.1847 34.9452C60.0789 35.5121 60.4526 36.0575 61.0195 36.1633C61.5864 36.2692 62.1318 35.8955 62.2376 35.3286C62.3435 34.7617 61.9698 34.2163 61.4029 34.1104C60.836 34.0046 60.2906 34.3783 60.1847 34.9452Z" fill="black"/>
<path d="M54.5895 37.3398C54.5255 37.9629 54.9788 38.5199 55.6019 38.5838C56.225 38.6477 56.7819 38.1944 56.8458 37.5713C56.9098 36.9483 56.4565 36.3913 55.8334 36.3274C55.2103 36.2635 54.6534 36.7167 54.5895 37.3398Z" fill="black"/>
<path d="M40.3176 59.8772C40.8042 60.4304 41.6471 60.4843 42.2003 59.9977C42.7535 59.5111 42.8074 58.6682 42.3208 58.1151C41.8342 57.5619 40.9913 57.5079 40.4381 57.9945C39.885 58.4812 39.831 59.3241 40.3176 59.8772Z" fill="black"/>
<path d="M67.5251 70.258C68.1027 70.1 68.4428 69.5038 68.2848 68.9262C68.1269 68.3487 67.5306 68.0085 66.953 68.1665C66.3755 68.3245 66.0354 68.9207 66.1933 69.4983C66.3513 70.0758 66.9476 70.416 67.5251 70.258Z" fill="black"/>
<path d="M34.3312 63.25C34.0587 63.7457 34.2396 64.3685 34.7353 64.641C35.2309 64.9135 35.8537 64.7326 36.1262 64.2369C36.3987 63.7412 36.2178 63.1185 35.7222 62.846C35.2265 62.5734 34.6037 62.7543 34.3312 63.25Z" fill="black"/>
<path d="M31.2368 58.2522C30.8396 58.5816 30.7847 59.1706 31.1141 59.5678C31.4434 59.965 32.0324 60.0199 32.4296 59.6905C32.8268 59.3612 32.8818 58.7722 32.5524 58.375C32.223 57.9778 31.634 57.9228 31.2368 58.2522Z" fill="black"/>
<path d="M32.3639 34.4176C31.7981 34.2301 31.1875 34.5368 31.0001 35.1026C30.8126 35.6683 31.1193 36.2789 31.685 36.4664C32.2508 36.6538 32.8614 36.3472 33.0489 35.7814C33.2363 35.2157 32.9296 34.6051 32.3639 34.4176Z" fill="black"/>
<path d="M40.7172 23.2685C40.31 22.9083 39.688 22.9464 39.3278 23.3535C38.9677 23.7607 39.0057 24.3827 39.4129 24.7428C39.82 25.103 40.442 25.0649 40.8022 24.6578C41.1624 24.2507 41.1243 23.6287 40.7172 23.2685Z" fill="black"/>
<path d="M49.5634 15.6276C49.3555 15.257 48.8865 15.1251 48.5159 15.333C48.1453 15.5408 48.0134 16.0098 48.2213 16.3804C48.4291 16.751 48.8981 16.8829 49.2687 16.6751C49.6393 16.4672 49.7712 15.9982 49.5634 15.6276Z" fill="black"/>
<path d="M55.8265 12.7781C55.6686 12.3985 55.2328 12.2188 54.8532 12.3768C54.4737 12.5348 54.294 12.9705 54.452 13.3501C54.6099 13.7297 55.0457 13.9093 55.4253 13.7514C55.8048 13.5934 55.9845 13.1577 55.8265 12.7781Z" fill="black"/>
<path d="M56.7754 8.89574C56.7011 8.5279 56.3427 8.28991 55.9748 8.36418C55.607 8.43844 55.369 8.79684 55.4433 9.16468C55.5176 9.53252 55.8759 9.77051 56.2438 9.69625C56.6116 9.62198 56.8496 9.26358 56.7754 8.89574Z" fill="black"/>
<path d="M61.0793 8.45953C61.007 8.08849 60.6475 7.84634 60.2765 7.91867C59.9055 7.991 59.6633 8.35042 59.7357 8.72146C59.808 9.0925 60.1674 9.33465 60.5384 9.26232C60.9095 9.18999 61.1516 8.83057 61.0793 8.45953Z" fill="black"/>
<path d="M61.9182 5.27194C61.8802 4.89029 61.54 4.61174 61.1583 4.64978C60.7767 4.68782 60.4981 5.02805 60.5362 5.4097C60.5742 5.79135 60.9144 6.0699 61.2961 6.03186C61.6777 5.99381 61.9563 5.65359 61.9182 5.27194Z" fill="black"/>
<path d="M60.4165 3.23173C60.3943 2.87372 60.0861 2.6015 59.7281 2.62372C59.37 2.64594 59.0978 2.95419 59.12 3.31221C59.1423 3.67022 59.4505 3.94244 59.8085 3.92022C60.1665 3.898 60.4388 3.58975 60.4165 3.23173Z" fill="black"/>
<path d="M68.4232 106.455C68.4409 106.149 68.2073 105.887 67.9016 105.869C67.5958 105.852 67.3336 106.085 67.3159 106.391C67.2982 106.697 67.5317 106.959 67.8375 106.976C68.1433 106.994 68.4055 106.761 68.4232 106.455Z" fill="black"/>
<path d="M66.5743 105.562C66.5907 105.259 66.3584 105 66.0553 104.984C65.7523 104.967 65.4932 105.2 65.4767 105.503C65.4603 105.806 65.6926 106.065 65.9957 106.081C66.2987 106.098 66.5578 105.865 66.5743 105.562Z" fill="black"/>
<path d="M67.4147 102.457C67.4195 102.142 67.1684 101.883 66.8539 101.878C66.5394 101.874 66.2805 102.125 66.2757 102.439C66.271 102.754 66.522 103.013 66.8366 103.017C67.1511 103.022 67.4099 102.771 67.4147 102.457Z" fill="black"/>
<path d="M74.123 98.9157C74.1162 98.5957 73.8513 98.3418 73.5313 98.3486C73.2113 98.3554 72.9574 98.6204 72.9642 98.9404C72.971 99.2604 73.2359 99.5143 73.5559 99.5074C73.876 99.5006 74.1299 99.2357 74.123 98.9157Z" fill="black"/>
<path d="M75.0689 97.5596C75.0529 97.2399 74.7808 96.9937 74.4612 97.0097C74.1415 97.0256 73.8953 97.2977 73.9112 97.6174C73.9271 97.937 74.1992 98.1833 74.5189 98.1673C74.8386 98.1514 75.0848 97.8793 75.0689 97.5596Z" fill="black"/>
<path d="M81.8164 88.9008C81.7277 88.5789 81.3949 88.3899 81.073 88.4785C80.7511 88.5672 80.5621 88.9 80.6507 89.2219C80.7394 89.5438 81.0722 89.7328 81.3941 89.6442C81.716 89.5555 81.905 89.2227 81.8164 88.9008Z" fill="black"/>
<path d="M90.3096 77.3071C90.134 76.9786 89.7254 76.8547 89.3969 77.0303C89.0684 77.2059 88.9444 77.6145 89.12 77.943C89.2956 78.2716 89.7043 78.3955 90.0328 78.2199C90.3613 78.0443 90.4853 77.6356 90.3096 77.3071Z" fill="black"/>
<path d="M93.8943 58.4963C93.5612 58.2849 93.1197 58.3835 92.9082 58.7166C92.6967 59.0497 92.7954 59.4912 93.1285 59.7027C93.4616 59.9142 93.9031 59.8155 94.1145 59.4824C94.326 59.1493 94.2274 58.7078 93.8943 58.4963Z" fill="black"/>
<path d="M79.7672 31.7801C79.2475 31.8489 78.882 32.3261 78.9508 32.8458C79.0196 33.3655 79.4968 33.731 80.0165 33.6622C80.5362 33.5933 80.9017 33.1162 80.8329 32.5965C80.764 32.0768 80.2869 31.7113 79.7672 31.7801Z" fill="black"/>
<path d="M47.6461 39.3218C47.4651 39.9703 47.8442 40.6427 48.4926 40.8237C49.1411 41.0047 49.8135 40.6257 49.9945 39.9772C50.1755 39.3287 49.7965 38.6563 49.148 38.4753C48.4995 38.2943 47.8271 38.6734 47.6461 39.3218Z" fill="black"/>
<path d="M50.1365 34.5794C49.7294 35.0482 49.7794 35.7582 50.2481 36.1653C50.7169 36.5724 51.4269 36.5224 51.834 36.0537C52.2411 35.5849 52.1911 34.8749 51.7224 34.4678C51.2536 34.0607 50.5436 34.1107 50.1365 34.5794Z" fill="black"/>
<path d="M35.8765 62.4399C35.7713 63.0433 36.1752 63.6178 36.7787 63.723C37.3821 63.8282 37.9566 63.4243 38.0618 62.8208C38.167 62.2174 37.7631 61.6429 37.1596 61.5377C36.5562 61.4325 35.9817 61.8364 35.8765 62.4399Z" fill="black"/>
<path d="M33.4094 41.6439C32.8091 41.8227 32.4674 42.4543 32.6462 43.0546C32.8249 43.6549 33.4565 43.9966 34.0568 43.8178C34.6571 43.639 34.9988 43.0074 34.82 42.4071C34.6413 41.8068 34.0097 41.4651 33.4094 41.6439Z" fill="black"/>
<path d="M37.3087 35.2132C36.7033 35.2583 36.2491 35.7856 36.2942 36.391C36.3393 36.9964 36.8666 37.4505 37.472 37.4055C38.0773 37.3604 38.5315 36.8331 38.4864 36.2277C38.4413 35.6223 37.914 35.1681 37.3087 35.2132Z" fill="black"/>
<path d="M38.8513 28.857C38.2972 28.645 37.6762 28.9223 37.4642 29.4763C37.2521 30.0304 37.5294 30.6514 38.0835 30.8634C38.6376 31.0755 39.2586 30.7982 39.4706 30.2441C39.6826 29.69 39.4054 29.069 38.8513 28.857Z" fill="black"/>
<path d="M53.1633 18.0348C52.8554 17.6883 52.3249 17.6569 51.9783 17.9648C51.6318 18.2726 51.6004 18.8032 51.9082 19.1497C52.2161 19.4963 52.7466 19.5277 53.0932 19.2198C53.4398 18.9119 53.4711 18.3814 53.1633 18.0348Z" fill="black"/>
<path d="M54.0147 14.8299C53.8013 14.4497 53.32 14.3146 52.9399 14.5281C52.5598 14.7416 52.4247 15.2228 52.6382 15.6029C52.8516 15.983 53.3328 16.1181 53.713 15.9047C54.0931 15.6912 54.2282 15.21 54.0147 14.8299Z" fill="black"/>
<path d="M57.897 12.0511C57.7517 11.6665 57.3221 11.4725 56.9375 11.6178C56.5529 11.7631 56.3589 12.1927 56.5042 12.5773C56.6495 12.9619 57.0791 13.1559 57.4637 13.0106C57.8483 12.8653 58.0423 12.4357 57.897 12.0511Z" fill="black"/>
<path d="M65.7497 8.84241C65.6721 8.46681 65.3047 8.22525 64.9291 8.30287C64.5535 8.3805 64.3119 8.74791 64.3895 9.12351C64.4672 9.49912 64.8346 9.74068 65.2102 9.66305C65.5858 9.58543 65.8273 9.21801 65.7497 8.84241Z" fill="black"/>
<path d="M64.8661 8.40564C64.7949 8.03438 64.4362 7.79111 64.065 7.86228C63.6937 7.93346 63.4504 8.29212 63.5216 8.66338C63.5928 9.03464 63.9514 9.27791 64.3227 9.20674C64.694 9.13556 64.9372 8.7769 64.8661 8.40564Z" fill="black"/>
<path d="M68.1354 5.86374C68.0882 5.46644 67.7279 5.18259 67.3306 5.22975C66.9333 5.27692 66.6494 5.63723 66.6966 6.03454C66.7438 6.43185 67.1041 6.71569 67.5014 6.66853C67.8987 6.62136 68.1825 6.26105 68.1354 5.86374Z" fill="black"/>
<path d="M65.2828 4.75849C65.2466 4.3822 64.9122 4.10653 64.5359 4.14276C64.1596 4.17899 63.884 4.51339 63.9202 4.88968C63.9564 5.26596 64.2908 5.54163 64.6671 5.5054C65.0434 5.46917 65.3191 5.13477 65.2828 4.75849Z" fill="black"/>
<path d="M69.8215 107.354C69.8401 107.046 69.6052 106.781 69.2967 106.762C68.9882 106.743 68.723 106.978 68.7044 107.287C68.6858 107.595 68.9207 107.86 69.2292 107.879C69.5377 107.898 69.8029 107.663 69.8215 107.354Z" fill="black"/>
<path d="M72.3208 105.341C72.3382 105.029 72.1 104.763 71.7887 104.745C71.4774 104.728 71.2109 104.966 71.1934 105.277C71.1759 105.589 71.4141 105.855 71.7255 105.873C72.0368 105.89 72.3033 105.652 72.3208 105.341Z" fill="black"/>
<path d="M72.7377 102.568C72.7504 102.26 72.5103 101.999 72.2016 101.986C71.8928 101.974 71.6322 102.214 71.6195 102.523C71.6068 102.831 71.8469 103.092 72.1556 103.105C72.4644 103.117 72.725 102.877 72.7377 102.568Z" fill="black"/>
<path d="M75.4388 99.0121C75.437 98.6948 75.1783 98.439 74.861 98.4408C74.5437 98.4426 74.2879 98.7013 74.2897 99.0186C74.2915 99.336 74.5502 99.5917 74.8675 99.5899C75.1848 99.5881 75.4406 99.3295 75.4388 99.0121Z" fill="black"/>
<path d="M77.7994 96.6365C77.7859 96.3056 77.5067 96.0484 77.1759 96.062C76.845 96.0755 76.5878 96.3547 76.6014 96.6855C76.6149 97.0164 76.8941 97.2736 77.2249 97.26C77.5558 97.2465 77.813 96.9673 77.7994 96.6365Z" fill="black"/>
<path d="M85.6771 88.3696C85.6256 88.0565 85.33 87.8445 85.0169 87.896C84.7038 87.9475 84.4917 88.2431 84.5433 88.5562C84.5948 88.8693 84.8904 89.0814 85.2035 89.0299C85.5166 88.9783 85.7286 88.6827 85.6771 88.3696Z" fill="black"/>
<path d="M88.0022 84.5195C87.9134 84.1691 87.5574 83.957 87.207 84.0458C86.8566 84.1345 86.6445 84.4905 86.7333 84.8409C86.822 85.1913 87.1781 85.4034 87.5285 85.3147C87.8789 85.2259 88.091 84.8699 88.0022 84.5195Z" fill="black"/>
<path d="M93.7833 70.9085C93.5831 70.5846 93.1583 70.4844 92.8344 70.6846C92.5105 70.8848 92.4102 71.3097 92.6104 71.6336C92.8106 71.9575 93.2355 72.0577 93.5594 71.8575C93.8833 71.6573 93.9836 71.2324 93.7833 70.9085Z" fill="black"/>
<path d="M94.1458 46.5543C93.8088 46.3286 93.3526 46.4188 93.1269 46.7558C92.9011 47.0927 92.9913 47.5489 93.3283 47.7747C93.6653 48.0004 94.1215 47.9102 94.3472 47.5732C94.573 47.2363 94.4828 46.7801 94.1458 46.5543Z" fill="black"/>
<path d="M73.2328 29.2274C72.7372 29.3709 72.4517 29.889 72.5952 30.3846C72.7387 30.8802 73.2568 31.1657 73.7525 31.0222C74.2481 30.8787 74.5336 30.3606 74.3901 29.865C74.2466 29.3693 73.7285 29.0839 73.2328 29.2274Z" fill="black"/>
<path d="M50.6179 31.4307C50.1049 31.6756 49.8876 32.2899 50.1324 32.8029C50.3773 33.3158 50.9916 33.5332 51.5046 33.2884C52.0176 33.0435 52.2349 32.4292 51.9901 31.9162C51.7452 31.4032 51.1309 31.1859 50.6179 31.4307Z" fill="black"/>
<path d="M50.7838 28.2255C50.2518 28.2487 49.8393 28.6988 49.8625 29.2309C49.8857 29.7629 50.3358 30.1754 50.8678 30.1522C51.3999 30.129 51.8124 29.6789 51.7892 29.1469C51.766 28.6148 51.3159 28.2023 50.7838 28.2255Z" fill="black"/>
<path d="M53.849 26.1571C53.2999 26.1012 52.8096 26.5011 52.7538 27.0501C52.698 27.5991 53.0978 28.0894 53.6468 28.1453C54.1958 28.2011 54.6862 27.8013 54.742 27.2522C54.7978 26.7032 54.398 26.2129 53.849 26.1571Z" fill="black"/>
<path d="M43.7618 28.8833C43.1842 28.7902 42.6406 29.1829 42.5476 29.7605C42.4545 30.338 42.8473 30.8816 43.4248 30.9746C44.0023 31.0677 44.5459 30.6749 44.639 30.0974C44.732 29.5199 44.3393 28.9763 43.7618 28.8833Z" fill="black"/>
<path d="M58.0522 18.3253C57.7695 18.0306 57.3014 18.021 57.0068 18.3038C56.7121 18.5865 56.7025 19.0546 56.9852 19.3492C57.268 19.6439 57.7361 19.6535 58.0307 19.3708C58.3254 19.088 58.335 18.6199 58.0522 18.3253Z" fill="black"/>
<path d="M59.94 16.4327C59.7032 16.1102 59.2497 16.0409 58.9273 16.2778C58.6049 16.5147 58.5355 16.9681 58.7724 17.2905C59.0093 17.6129 59.4627 17.6823 59.7851 17.4454C60.1076 17.2085 60.1769 16.7551 59.94 16.4327Z" fill="black"/>
<path d="M67.4946 12.9988C67.3432 12.6225 66.9155 12.4402 66.5392 12.5915C66.1628 12.7429 65.9805 13.1706 66.1318 13.5469C66.2832 13.9232 66.7109 14.1056 67.0872 13.9543C67.4636 13.8029 67.6459 13.3752 67.4946 12.9988Z" fill="black"/>
<path d="M66.2657 11.6002C66.1373 11.2155 65.7213 11.0077 65.3365 11.1361C64.9518 11.2645 64.744 11.6805 64.8724 12.0652C65.0008 12.45 65.4168 12.6578 65.8015 12.5294C66.1863 12.401 66.3941 11.985 66.2657 11.6002Z" fill="black"/>
<path d="M72.1902 10.4784C72.1012 10.0968 71.7197 9.85974 71.3381 9.94881C70.9565 10.0379 70.7194 10.4194 70.8085 10.801C70.8976 11.1825 71.2791 11.4196 71.6607 11.3306C72.0422 11.2415 72.2793 10.86 72.1902 10.4784Z" fill="black"/>
<path d="M68.2551 8.33579C68.1868 7.95839 67.8255 7.70784 67.4481 7.77617C67.0706 7.84451 66.8201 8.20586 66.8884 8.58326C66.9568 8.96066 67.3181 9.21121 67.6955 9.14288C68.0729 9.07454 68.3235 8.71319 68.2551 8.33579Z" fill="black"/>
<path d="M72.2039 6.85143C72.1477 6.4358 71.7653 6.1444 71.3496 6.20057C70.934 6.25673 70.6426 6.6392 70.6988 7.05484C70.7549 7.47047 71.1374 7.76187 71.553 7.7057C71.9687 7.64953 72.2601 7.26706 72.2039 6.85143Z" fill="black"/>
<path d="M72.1118 3.82368C72.0796 3.43318 71.737 3.14268 71.3465 3.17483C70.956 3.20699 70.6655 3.54961 70.6977 3.94011C70.7298 4.33061 71.0725 4.6211 71.463 4.58895C71.8534 4.5568 72.1439 4.21417 72.1118 3.82368Z" fill="black"/>
<path d="M77.1625 103.433C77.1781 103.13 76.9451 102.871 76.642 102.856C76.3389 102.84 76.0805 103.073 76.0648 103.376C76.0491 103.679 76.2821 103.938 76.5852 103.953C76.8884 103.969 77.1468 103.736 77.1625 103.433Z" fill="black"/>
<path d="M80.6742 99.3897C80.6851 99.0698 80.4346 98.8016 80.1147 98.7907C79.7948 98.7798 79.5266 99.0303 79.5157 99.3502C79.5048 99.6701 79.7553 99.9382 80.0752 99.9492C80.3951 99.9601 80.6633 99.7096 80.6742 99.3897Z" fill="black"/>
<path d="M80.7883 98.3197C80.7957 97.9914 80.5356 97.7193 80.2073 97.7119C79.879 97.7045 79.6069 97.9647 79.5996 98.293C79.5922 98.6212 79.8523 98.8933 80.1806 98.9007C80.5089 98.9081 80.781 98.6479 80.7883 98.3197Z" fill="black"/>
<path d="M81.0607 95.4303C81.0513 95.1076 80.7821 94.8537 80.4594 94.8631C80.1367 94.8726 79.8827 95.1418 79.8921 95.4645C79.9016 95.7872 80.1708 96.0412 80.4935 96.0317C80.8162 96.0223 81.0702 95.753 81.0607 95.4303Z" fill="black"/>
<path d="M89.3754 85.663C89.3207 85.3113 88.9912 85.0705 88.6395 85.1252C88.2878 85.1799 88.047 85.5094 88.1017 85.8611C88.1564 86.2128 88.4859 86.4536 88.8376 86.3989C89.1893 86.3442 89.4301 86.0147 89.3754 85.663Z" fill="black"/>
<path d="M93.2107 78.517C93.1078 78.1476 92.7249 77.9314 92.3554 78.0342C91.986 78.1371 91.7698 78.52 91.8727 78.8895C91.9755 79.259 92.3584 79.4752 92.7279 79.3723C93.0974 79.2694 93.3136 78.8865 93.2107 78.517Z" fill="black"/>
<path d="M96.0767 70.1025C95.9283 69.7669 95.5359 69.6151 95.2002 69.7635C94.8646 69.912 94.7128 70.3044 94.8613 70.64C95.0097 70.9756 95.4021 71.1274 95.7377 70.979C96.0734 70.8305 96.2251 70.4381 96.0767 70.1025Z" fill="black"/>
<path d="M98.0514 64.9454C97.8962 64.6068 97.4959 64.4581 97.1573 64.6132C96.8186 64.7684 96.6699 65.1687 96.8251 65.5074C96.9802 65.846 97.3806 65.9948 97.7192 65.8396C98.0579 65.6844 98.2066 65.2841 98.0514 64.9454Z" fill="black"/>
<path d="M94.6504 41.8705C94.3447 41.5559 93.8418 41.5486 93.5271 41.8543C93.2125 42.16 93.2052 42.663 93.5109 42.9776C93.8166 43.2923 94.3196 43.2996 94.6342 42.9938C94.9489 42.6881 94.9562 42.1852 94.6504 41.8705Z" fill="black"/>
<path d="M75.8679 26.4395C75.4148 26.2982 74.9329 26.5508 74.7916 27.0039C74.6502 27.4569 74.9029 27.9388 75.3559 28.0802C75.809 28.2215 76.2908 27.9689 76.4322 27.5158C76.5736 27.0628 76.3209 26.5809 75.8679 26.4395Z" fill="black"/>
<path d="M83.0025 26.4931C82.6444 26.149 82.0751 26.1603 81.731 26.5184C81.3869 26.8766 81.3982 27.4459 81.7563 27.79C82.1144 28.1341 82.6837 28.1228 83.0279 27.7647C83.372 27.4065 83.3607 26.8372 83.0025 26.4931Z" fill="black"/>
<path d="M77.1861 22.0716C76.8759 21.7124 76.3333 21.6727 75.9741 21.9828C75.6149 22.293 75.5751 22.8357 75.8853 23.1949C76.1955 23.5541 76.7382 23.5938 77.0974 23.2836C77.4566 22.9734 77.4963 22.4308 77.1861 22.0716Z" fill="black"/>
<path d="M60.0595 21.7383C59.661 21.507 59.1504 21.6427 58.9192 22.0413C58.688 22.4399 58.8236 22.9505 59.2222 23.1817C59.6208 23.4129 60.1314 23.2772 60.3626 22.8786C60.5938 22.48 60.4581 21.9695 60.0595 21.7383Z" fill="black"/>
<path d="M66.4515 18.1993C66.1843 17.8796 65.7085 17.8371 65.3888 18.1043C65.0691 18.3715 65.0266 18.8473 65.2938 19.167C65.561 19.4866 66.0367 19.5292 66.3564 19.262C66.6761 18.9948 66.7187 18.519 66.4515 18.1993Z" fill="black"/>
<path d="M71.9891 15.3339C71.8144 14.9617 71.3711 14.8016 70.9989 14.9763C70.6267 15.151 70.4666 15.5943 70.6413 15.9665C70.816 16.3387 71.2593 16.4988 71.6315 16.3241C72.0037 16.1494 72.1638 15.706 71.9891 15.3339Z" fill="black"/>
<path d="M74.1269 14.4462C73.9763 14.0489 73.532 13.8489 73.1347 13.9996C72.7374 14.1502 72.5374 14.5945 72.6881 14.9918C72.8387 15.3891 73.2829 15.5891 73.6803 15.4384C74.0776 15.2878 74.2776 14.8435 74.1269 14.4462Z" fill="black"/>
<path d="M74.6277 12.7206C74.5063 12.3076 74.0731 12.0712 73.6601 12.1927C73.2471 12.3141 73.0108 12.7473 73.1322 13.1602C73.2536 13.5732 73.6868 13.8096 74.0998 13.6882C74.5128 13.5667 74.7491 13.1335 74.6277 12.7206Z" fill="black"/>
<path d="M78.5555 12.2739C78.4489 11.8029 77.9807 11.5075 77.5097 11.6141C77.0388 11.7207 76.7434 12.1889 76.85 12.6598C76.9565 13.1308 77.4247 13.4262 77.8957 13.3196C78.3667 13.213 78.6621 12.7448 78.5555 12.2739Z" fill="black"/>
<path d="M74.2301 8.42634C74.1615 8.00138 73.7615 7.71246 73.3365 7.78101C72.9116 7.84955 72.6226 8.24962 72.6912 8.67457C72.7597 9.09953 73.1598 9.38845 73.5847 9.3199C74.0097 9.25136 74.2986 8.85129 74.2301 8.42634Z" fill="black"/>
<path d="M76.6908 8.222C76.6219 7.7608 76.1922 7.44278 75.731 7.51168C75.2698 7.58058 74.9518 8.01031 75.0207 8.47151C75.0896 8.93271 75.5193 9.25073 75.9805 9.18183C76.4417 9.11293 76.7598 8.6832 76.6908 8.222Z" fill="black"/>
<path d="M73.7824 5.36733C73.7392 4.96125 73.375 4.66709 72.9689 4.7103C72.5628 4.75352 72.2686 5.11775 72.3118 5.52383C72.3551 5.92991 72.7193 6.22407 73.1254 6.18086C73.5314 6.13764 73.8256 5.77342 73.7824 5.36733Z" fill="black"/>
<path d="M79.8096 103.09C79.826 102.77 79.5801 102.498 79.2605 102.481C78.9408 102.465 78.6684 102.711 78.652 103.031C78.6356 103.35 78.8815 103.623 79.2011 103.639C79.5208 103.655 79.7932 103.41 79.8096 103.09Z" fill="black"/>
<path d="M82.1815 99.4942C82.1938 99.1661 81.9378 98.8901 81.6097 98.8777C81.2816 98.8654 81.0056 99.1214 80.9932 99.4495C80.9809 99.7776 81.2369 100.054 81.565 100.066C81.8931 100.078 82.1691 99.8223 82.1815 99.4942Z" fill="black"/>
<path d="M85.8531 94.3346C85.8529 94.0035 85.5843 93.7353 85.2532 93.7355C84.9221 93.7357 84.6538 94.0043 84.6541 94.3354C84.6543 94.6665 84.9229 94.9348 85.254 94.9346C85.5851 94.9343 85.8534 94.6657 85.8531 94.3346Z" fill="black"/>
<path d="M86 92.4166C85.9899 92.1078 85.7313 91.8656 85.4224 91.8757C85.1135 91.8858 84.8713 92.1444 84.8814 92.4532C84.8915 92.7621 85.1501 93.0043 85.459 92.9942C85.7679 92.9841 86.0101 92.7255 86 92.4166Z" fill="black"/>
<path d="M91.5861 85.1269C91.5478 84.7814 91.2365 84.5323 90.891 84.5707C90.5454 84.6091 90.2964 84.9203 90.3348 85.2658C90.3731 85.6114 90.6844 85.8604 91.0299 85.822C91.3755 85.7837 91.6245 85.4725 91.5861 85.1269Z" fill="black"/>
<path d="M94.8677 76.5884C94.768 76.2181 94.387 75.9987 94.0166 76.0984C93.6463 76.1981 93.4269 76.5791 93.5266 76.9495C93.6263 77.3198 94.0073 77.5392 94.3777 77.4395C94.748 77.3398 94.9675 76.9588 94.8677 76.5884Z" fill="black"/>
<path d="M96.6488 72.0553C96.5351 71.7093 96.1625 71.5209 95.8165 71.6346C95.4704 71.7483 95.2821 72.1209 95.3957 72.467C95.5094 72.813 95.8821 73.0014 96.2281 72.8877C96.5741 72.774 96.7625 72.4014 96.6488 72.0553Z" fill="black"/>
<path d="M99.0786 66.8094C98.9553 66.4345 98.5515 66.2306 98.1767 66.3539C97.8019 66.4772 97.598 66.881 97.7213 67.2559C97.8446 67.6307 98.2484 67.8346 98.6232 67.7113C98.998 67.588 99.2019 67.1842 99.0786 66.8094Z" fill="black"/>
<path d="M99.2143 52.7538C99.0136 52.3793 98.5472 52.2383 98.1727 52.439C97.7981 52.6397 97.6572 53.106 97.8579 53.4806C98.0586 53.8551 98.5249 53.9961 98.8995 53.7954C99.274 53.5947 99.4149 53.1284 99.2143 52.7538Z" fill="black"/>
<path d="M99.5042 46.0436C99.3546 45.6665 98.9278 45.4821 98.5507 45.6316C98.1737 45.7812 97.9892 46.208 98.1388 46.5851C98.2883 46.9621 98.7151 47.1466 99.0922 46.997C99.4692 46.8475 99.6537 46.4206 99.5042 46.0436Z" fill="black"/>
<path d="M95.0241 35.0063C94.8475 34.6167 94.3886 34.4441 93.9991 34.6206C93.6095 34.7971 93.4369 35.2561 93.6134 35.6456C93.7899 36.0352 94.2488 36.2078 94.6384 36.0313C95.0279 35.8548 95.2006 35.3958 95.0241 35.0063Z" fill="black"/>
<path d="M80.4961 23.5253C80.1669 23.1244 79.5751 23.0663 79.1742 23.3955C78.7733 23.7247 78.7152 24.3165 79.0444 24.7174C79.3736 25.1183 79.9655 25.1764 80.3663 24.8472C80.7672 24.518 80.8254 23.9261 80.4961 23.5253Z" fill="black"/>
<path d="M79.2145 21.7958C78.9286 21.3863 78.3649 21.286 77.9554 21.5719C77.5458 21.8577 77.4456 22.4215 77.7314 22.831C78.0173 23.2405 78.581 23.3408 78.9905 23.0549C79.4001 22.7691 79.5003 22.2054 79.2145 21.7958Z" fill="black"/>
<path d="M84.5158 20.7993C84.3475 20.3467 83.8441 20.1164 83.3915 20.2848C82.9389 20.4531 82.7086 20.9565 82.877 21.4091C83.0454 21.8617 83.5487 22.092 84.0013 21.9236C84.4539 21.7552 84.6842 21.2519 84.5158 20.7993Z" fill="black"/>
<path d="M81.2411 18.379C81.0743 17.9406 80.5836 17.7205 80.1452 17.8873C79.7068 18.0541 79.4867 18.5448 79.6535 18.9832C79.8203 19.4216 80.311 19.6417 80.7494 19.4749C81.1878 19.3081 81.4079 18.8174 81.2411 18.379Z" fill="black"/>
<path d="M84.3226 18.2315C84.1802 17.7413 83.6674 17.4593 83.1772 17.6018C82.687 17.7442 82.405 18.257 82.5475 18.7472C82.6899 19.2374 83.2027 19.5194 83.6929 19.3769C84.1831 19.2345 84.4651 18.7217 84.3226 18.2315Z" fill="black"/>
<path d="M81.75 14.1993C81.638 13.7183 81.1572 13.4191 80.6761 13.5312C80.1951 13.6432 79.896 14.124 80.008 14.605C80.1201 15.0861 80.6008 15.3852 81.0819 15.2732C81.5629 15.1611 81.862 14.6803 81.75 14.1993Z" fill="black"/>
<path d="M80.8745 11.5707C80.7904 11.1148 80.3527 10.8135 79.8969 10.8975C79.441 10.9816 79.1396 11.4193 79.2237 11.8752C79.3077 12.3311 79.7455 12.6325 80.2013 12.5484C80.6572 12.4643 80.9586 12.0266 80.8745 11.5707Z" fill="black"/>
<path d="M80.3281 11.0794C80.2471 10.6285 79.8159 10.3288 79.3651 10.4098C78.9143 10.4909 78.6145 10.922 78.6955 11.3728C78.7766 11.8236 79.2077 12.1234 79.6586 12.0424C80.1094 11.9613 80.4091 11.5302 80.3281 11.0794Z" fill="black"/>
<path d="M79.8023 7.19401C79.7455 6.7256 79.3197 6.39192 78.8513 6.4487C78.3829 6.50548 78.0492 6.93124 78.106 7.39965C78.1628 7.86805 78.5886 8.20174 79.057 8.14496C79.5254 8.08817 79.8591 7.66242 79.8023 7.19401Z" fill="black"/>
<path d="M88.3655 96.1527C88.3734 95.8052 88.0981 95.5169 87.7505 95.509C87.403 95.501 87.1147 95.7763 87.1068 96.1239C87.0988 96.4715 87.3741 96.7597 87.7217 96.7676C88.0693 96.7756 88.3575 96.5003 88.3655 96.1527Z" fill="black"/>
<path d="M86.3899 96.4266C86.398 96.0873 86.1294 95.8057 85.7901 95.7977C85.4508 95.7896 85.1693 96.0582 85.1612 96.3975C85.1532 96.7368 85.4217 97.0183 85.761 97.0264C86.1003 97.0344 86.3819 96.7659 86.3899 96.4266Z" fill="black"/>
<path d="M89.2084 91.4661C89.2032 91.1323 88.9284 90.8658 88.5946 90.871C88.2608 90.8761 87.9943 91.1509 87.9994 91.4847C88.0046 91.8185 88.2793 92.085 88.6132 92.0799C88.947 92.0748 89.2135 91.8 89.2084 91.4661Z" fill="black"/>
<path d="M92.618 88.1572C92.6063 87.8015 92.3085 87.5225 91.9528 87.5341C91.597 87.5458 91.318 87.8436 91.3297 88.1994C91.3413 88.5551 91.6391 88.8341 91.9949 88.8224C92.3507 88.8108 92.6296 88.513 92.618 88.1572Z" fill="black"/>
<path d="M97.6086 77.9555C97.5616 77.586 97.2238 77.3246 96.8543 77.3717C96.4848 77.4188 96.2234 77.7565 96.2705 78.126C96.3176 78.4956 96.6553 78.7569 97.0248 78.7099C97.3943 78.6628 97.6557 78.3251 97.6086 77.9555Z" fill="black"/>
<path d="M97.8711 76.1926C97.8121 75.8164 97.4594 75.5593 97.0832 75.6183C96.707 75.6772 96.4499 76.03 96.5089 76.4062C96.5678 76.7824 96.9206 77.0395 97.2968 76.9805C97.673 76.9215 97.9301 76.5688 97.8711 76.1926Z" fill="black"/>
<path d="M100.742 62.0372C100.641 61.7016 100.287 61.5113 99.9516 61.6121C99.6159 61.7129 99.4256 62.0666 99.5264 62.4023C99.6272 62.7379 99.981 62.9282 100.317 62.8274C100.652 62.7266 100.843 62.3729 100.742 62.0372Z" fill="black"/>
<path d="M102.415 58.4288C102.341 58.0864 102.003 57.8692 101.66 57.9437C101.318 58.0182 101.101 58.3562 101.175 58.6986C101.25 59.041 101.588 59.2582 101.93 59.1837C102.273 59.1092 102.49 58.7712 102.415 58.4288Z" fill="black"/>
<path d="M102.465 54.1559C102.384 53.7922 102.024 53.5628 101.66 53.6434C101.297 53.724 101.067 54.0842 101.148 54.4479C101.228 54.8115 101.589 55.041 101.952 54.9604C102.316 54.8797 102.545 54.5196 102.465 54.1559Z" fill="black"/>
<path d="M101.441 45.8579C101.352 45.4564 100.955 45.2028 100.553 45.2913C100.152 45.3799 99.8981 45.7771 99.9866 46.1786C100.075 46.5801 100.472 46.8338 100.874 46.7452C101.275 46.6567 101.529 46.2594 101.441 45.8579Z" fill="black"/>
<path d="M99.9878 39.3462C99.8944 38.9232 99.4758 38.656 99.0528 38.7494C98.6298 38.8428 98.3625 39.2614 98.4559 39.6844C98.5493 40.1074 98.9679 40.3747 99.391 40.2813C99.814 40.1879 100.081 39.7693 99.9878 39.3462Z" fill="black"/>
<path d="M88.7507 24.4596C88.5781 23.9705 88.0416 23.7138 87.5524 23.8864C87.0632 24.0591 86.8066 24.5956 86.9792 25.0847C87.1518 25.5739 87.6883 25.8305 88.1775 25.6579C88.6667 25.4853 88.9233 24.9488 88.7507 24.4596Z" fill="black"/>
<path d="M89.1579 22.7198C89.0168 22.2092 88.4884 21.9097 87.9778 22.0508C87.4671 22.192 87.1676 22.7203 87.3088 23.231C87.4499 23.7416 87.9783 24.0411 88.4889 23.9C88.9995 23.7588 89.2991 23.2304 89.1579 22.7198Z" fill="black"/>
<path d="M91.7076 23.3884C91.5945 22.8568 91.0718 22.5175 90.5401 22.6306C90.0084 22.7438 89.6691 23.2665 89.7823 23.7982C89.8954 24.3299 90.4182 24.6691 90.9498 24.556C91.4815 24.4429 91.8208 23.9201 91.7076 23.3884Z" fill="black"/>
<path d="M87.7386 18.2842C87.6216 17.7392 87.085 17.3923 86.54 17.5093C85.995 17.6263 85.6481 18.1629 85.7651 18.7079C85.8821 19.2528 86.4187 19.5998 86.9637 19.4828C87.5087 19.3658 87.8556 18.8291 87.7386 18.2842Z" fill="black"/>
<path d="M86.7237 16.1059C86.6184 15.567 86.0962 15.2155 85.5573 15.3208C85.0184 15.4261 84.6669 15.9483 84.7721 16.4872C84.8774 17.0262 85.3997 17.3777 85.9386 17.2724C86.4775 17.1671 86.829 16.6448 86.7237 16.1059Z" fill="black"/>
<path d="M84.8821 14.3978C84.7817 13.8777 84.2786 13.5374 83.7585 13.6378C83.2383 13.7382 82.898 14.2413 82.9984 14.7615C83.0988 15.2817 83.6019 15.6219 84.1221 15.5215C84.6423 15.4211 84.9826 14.918 84.8821 14.3978Z" fill="black"/>
<path d="M86.2221 11.2565C86.1471 10.732 85.6612 10.3677 85.1367 10.4427C84.6123 10.5177 84.2479 11.0037 84.3229 11.5281C84.3979 12.0526 84.8839 12.4169 85.4083 12.3419C85.9328 12.2669 86.2971 11.7809 86.2221 11.2565Z" fill="black"/>
<path d="M82.8838 8.86831C82.8227 8.40601 82.3985 8.08075 81.9362 8.14181C81.4739 8.20288 81.1486 8.62715 81.2097 9.08946C81.2707 9.55176 81.695 9.87702 82.1573 9.81596C82.6196 9.75489 82.9449 9.33062 82.8838 8.86831Z" fill="black"/>
<path d="M91.1855 94.9641C91.1916 94.6082 90.908 94.3148 90.5521 94.3087C90.1963 94.3026 89.9028 94.5862 89.8967 94.9421C89.8906 95.298 90.1742 95.5914 90.5301 95.5975C90.886 95.6036 91.1794 95.32 91.1855 94.9641Z" fill="black"/>
<path d="M93.9432 91.4589C93.9425 91.0809 93.6355 90.775 93.2575 90.7757C92.8795 90.7763 92.5736 91.0833 92.5743 91.4614C92.575 91.8394 92.882 92.1453 93.26 92.1446C93.638 92.1439 93.9439 91.8369 93.9432 91.4589Z" fill="black"/>
<path d="M92.9228 91.1455C92.9215 90.773 92.6185 90.4721 92.246 90.4733C91.8735 90.4746 91.5725 90.7776 91.5738 91.1501C91.5751 91.5226 91.8781 91.8236 92.2506 91.8223C92.6231 91.821 92.924 91.518 92.9228 91.1455Z" fill="black"/>
<path d="M97.3217 83.3649C97.3045 83.0232 97.0136 82.7601 96.6719 82.7773C96.3301 82.7944 96.067 83.0854 96.0842 83.4271C96.1014 83.7688 96.3923 84.0319 96.7341 84.0147C97.0758 83.9976 97.3389 83.7066 97.3217 83.3649Z" fill="black"/>
<path d="M97.8139 82.6907C97.7958 82.3518 97.5065 82.0917 97.1676 82.1097C96.8287 82.1277 96.5685 82.417 96.5865 82.7559C96.6045 83.0948 96.8939 83.355 97.2328 83.337C97.5717 83.319 97.8319 83.0296 97.8139 82.6907Z" fill="black"/>
<path d="M101.079 72.7866C101.037 72.4249 100.709 72.1663 100.347 72.209C99.9855 72.2517 99.7269 72.5796 99.7696 72.9413C99.8123 73.303 100.14 73.5616 100.502 73.5189C100.864 73.4762 101.122 73.1483 101.079 72.7866Z" fill="black"/>
<path d="M102.535 65.5382C102.478 65.1728 102.136 64.9225 101.771 64.9791C101.405 65.0357 101.155 65.3777 101.212 65.7431C101.268 66.1085 101.61 66.3588 101.976 66.3022C102.341 66.2457 102.591 65.9036 102.535 65.5382Z" fill="black"/>
<path d="M103.669 58.8864C103.62 58.545 103.303 58.3079 102.962 58.3568C102.62 58.4058 102.383 58.7222 102.432 59.0636C102.481 59.405 102.798 59.6422 103.139 59.5932C103.48 59.5443 103.718 59.2278 103.669 58.8864Z" fill="black"/>
<path d="M104.052 53.4275C104.008 53.0686 103.682 52.8132 103.323 52.8568C102.964 52.9005 102.709 53.2268 102.752 53.5856C102.796 53.9444 103.122 54.1999 103.481 54.1562C103.84 54.1126 104.095 53.7863 104.052 53.4275Z" fill="black"/>
<path d="M104.31 50.6427C104.278 50.2993 103.973 50.047 103.63 50.0791C103.287 50.1113 103.034 50.4157 103.066 50.7591C103.099 51.1025 103.403 51.3549 103.746 51.3227C104.09 51.2906 104.342 50.9862 104.31 50.6427Z" fill="black"/>
<path d="M102.099 41.0242C102.043 40.6085 101.661 40.3166 101.246 40.3722C100.83 40.4278 100.538 40.8098 100.593 41.2255C100.649 41.6412 101.031 41.9332 101.447 41.8776C101.863 41.822 102.154 41.44 102.099 41.0242Z" fill="black"/>
<path d="M98.624 34.0134C98.5443 33.5567 98.1095 33.2512 97.6528 33.3309C97.1962 33.4106 96.8906 33.8454 96.9703 34.302C97.05 34.7587 97.4848 35.0643 97.9415 34.9846C98.3981 34.9049 98.7037 34.47 98.624 34.0134Z" fill="black"/>
<path d="M96.7241 27.685C96.651 27.1603 96.1664 26.7942 95.6417 26.8673C95.1169 26.9404 94.7508 27.425 94.8239 27.9497C94.897 28.4744 95.3817 28.8405 95.9064 28.7674C96.4311 28.6943 96.7972 28.2097 96.7241 27.685Z" fill="black"/>
<path d="M93.2579 23.1444C93.1668 22.6058 92.6563 22.2429 92.1176 22.3339C91.5789 22.425 91.216 22.9355 91.3071 23.4742C91.3982 24.0129 91.9087 24.3758 92.4474 24.2847C92.9861 24.1937 93.349 23.6831 93.2579 23.1444Z" fill="black"/>
<path d="M90.5448 20.2432C90.4413 19.6956 89.9133 19.3356 89.3657 19.4392C88.818 19.5427 88.458 20.0707 88.5616 20.6183C88.6652 21.166 89.1931 21.526 89.7408 21.4224C90.2884 21.3188 90.6484 20.7909 90.5448 20.2432Z" fill="black"/>
<path d="M92.051 18.8304C91.9702 18.2929 91.4689 17.9226 90.9313 18.0034C90.3938 18.0843 90.0236 18.5855 90.1044 19.1231C90.1852 19.6606 90.6864 20.0309 91.224 19.95C91.7615 19.8692 92.1318 19.368 92.051 18.8304Z" fill="black"/>
<path d="M91.6417 15.6405C91.5686 15.1074 91.0772 14.7346 90.5442 14.8077C90.0111 14.8808 89.6382 15.3722 89.7113 15.9052C89.7844 16.4383 90.2758 16.8112 90.8089 16.7381C91.3419 16.665 91.7148 16.1736 91.6417 15.6405Z" fill="black"/>
<path d="M87.5685 12.0329C87.4925 11.4974 86.9968 11.1249 86.4614 11.2009C85.9259 11.2769 85.5534 11.7726 85.6294 12.3081C85.7054 12.8435 86.2011 13.216 86.7366 13.14C87.272 13.064 87.6445 12.5683 87.5685 12.0329Z" fill="black"/>
<path d="M94.5293 91.1439C94.5279 90.7659 94.2204 90.4605 93.8424 90.4619C93.4644 90.4632 93.159 90.7708 93.1604 91.1488C93.1617 91.5268 93.4692 91.8322 93.8472 91.8308C94.2253 91.8295 94.5306 91.522 94.5293 91.1439Z" fill="black"/>
<path d="M95.9383 89.8924C95.9345 89.5254 95.6339 89.231 95.267 89.2348C94.9 89.2387 94.6056 89.5392 94.6094 89.9062C94.6133 90.2732 94.9138 90.5676 95.2808 90.5637C95.6478 90.5599 95.9422 90.2593 95.9383 89.8924Z" fill="black"/>
<path d="M97.6766 83.5901C97.6612 83.2539 97.3761 82.9938 97.0398 83.0092C96.7035 83.0246 96.4434 83.3097 96.4588 83.646C96.4742 83.9822 96.7593 84.2423 97.0956 84.2269C97.4319 84.2115 97.692 83.9264 97.6766 83.5901Z" fill="black"/>
<path d="M101.135 80.1707C101.115 79.8153 100.811 79.5433 100.456 79.5631C100.1 79.5829 99.8282 79.8871 99.848 80.2425C99.8678 80.5979 100.172 80.8699 100.527 80.8501C100.883 80.8303 101.155 80.5261 101.135 80.1707Z" fill="black"/>
<path d="M101.857 74.7469C101.827 74.3867 101.511 74.1186 101.151 74.1481C100.79 74.1777 100.522 74.4937 100.552 74.854C100.581 75.2142 100.897 75.4823 101.258 75.4527C101.618 75.4232 101.886 75.1072 101.857 74.7469Z" fill="black"/>
<path d="M104.352 70.8289C104.327 70.4794 104.023 70.2164 103.673 70.2414C103.324 70.2664 103.061 70.5701 103.086 70.9196C103.111 71.2692 103.415 71.5322 103.764 71.5072C104.114 71.4821 104.377 71.1785 104.352 70.8289Z" fill="black"/>
<path d="M105.559 64.2057C105.533 63.8257 105.204 63.5387 104.825 63.5645C104.445 63.5902 104.158 63.9191 104.183 64.299C104.209 64.6789 104.538 64.966 104.918 64.9402C105.298 64.9144 105.585 64.5856 105.559 64.2057Z" fill="black"/>
<path d="M105.34 56.0414C105.315 55.6947 105.014 55.434 104.667 55.4592C104.32 55.4843 104.059 55.7859 104.085 56.1326C104.11 56.4794 104.411 56.7401 104.758 56.7149C105.105 56.6897 105.366 56.3882 105.34 56.0414Z" fill="black"/>
<path d="M104.806 49.0323C104.774 48.6833 104.465 48.4263 104.116 48.4581C103.767 48.49 103.51 48.7987 103.542 49.1477C103.574 49.4967 103.882 49.7538 104.231 49.7219C104.58 49.69 104.838 49.3813 104.806 49.0323Z" fill="black"/>
<path d="M103.943 44.1966C103.907 43.7926 103.55 43.4945 103.146 43.5308C102.742 43.5671 102.444 43.924 102.48 44.328C102.516 44.732 102.873 45.0301 103.277 44.9938C103.681 44.9575 103.979 44.6006 103.943 44.1966Z" fill="black"/>
<path d="M104.164 39.4401C104.145 39.0184 103.788 38.6916 103.366 38.7103C102.944 38.7289 102.618 39.0859 102.636 39.5077C102.655 39.9295 103.012 40.2562 103.434 40.2376C103.855 40.2189 104.182 39.8619 104.164 39.4401Z" fill="black"/>
<path d="M101.849 33.325C101.821 32.8651 101.425 32.5152 100.965 32.5435C100.505 32.5718 100.155 32.9676 100.184 33.4276C100.212 33.8875 100.608 34.2374 101.068 34.209C101.528 34.1807 101.878 33.7849 101.849 33.325Z" fill="black"/>
<path d="M96.8709 25.1913C96.81 24.6595 96.3295 24.2778 95.7976 24.3387C95.2658 24.3997 94.8841 24.8802 94.945 25.412C95.006 25.9438 95.4865 26.3256 96.0183 26.2646C96.5501 26.2037 96.9319 25.7232 96.8709 25.1913Z" fill="black"/>
<path d="M97.17 23.3029C97.1113 22.7459 96.6121 22.3419 96.0551 22.4006C95.498 22.4593 95.094 22.9584 95.1527 23.5155C95.2114 24.0725 95.7106 24.4765 96.2676 24.4178C96.8247 24.3591 97.2287 23.86 97.17 23.3029Z" fill="black"/>
<path d="M95.1009 19.1881C95.0345 18.6319 94.5298 18.2348 93.9736 18.3012C93.4174 18.3676 93.0203 18.8723 93.0867 19.4285C93.1531 19.9847 93.6578 20.3817 94.214 20.3153C94.7702 20.249 95.1672 19.7443 95.1009 19.1881Z" fill="black"/>
<path d="M92.5171 16.5099C92.4453 15.9739 91.9526 15.5975 91.4165 15.6693C90.8805 15.741 90.5041 16.2338 90.5759 16.7698C90.6477 17.3058 91.1404 17.6822 91.6764 17.6104C92.2125 17.5387 92.5888 17.0459 92.5171 16.5099Z" fill="black"/>
<path d="M98.5311 87.1882C98.5223 86.8352 98.2289 86.5561 97.8758 86.5649C97.5228 86.5737 97.2437 86.8671 97.2525 87.2202C97.2613 87.5732 97.5547 87.8523 97.9078 87.8435C98.2608 87.8347 98.5399 87.5413 98.5311 87.1882Z" fill="black"/>
<path d="M102.989 80.6692C102.969 80.2945 102.649 80.0069 102.274 80.0268C101.899 80.0467 101.612 80.3666 101.632 80.7413C101.651 81.1161 101.971 81.4037 102.346 81.3838C102.721 81.3639 103.008 81.044 102.989 80.6692Z" fill="black"/>
<path d="M101.16 80.3269C101.14 79.9715 100.836 79.6993 100.481 79.7189C100.125 79.7385 99.8531 80.0425 99.8727 80.3979C99.8924 80.7533 100.196 81.0255 100.552 81.0059C100.907 80.9863 101.179 80.6823 101.16 80.3269Z" fill="black"/>
<path d="M105.091 74.5465C105.067 74.1831 104.754 73.9076 104.39 73.9312C104.027 73.9548 103.751 74.2686 103.775 74.6321C103.798 74.9955 104.112 75.271 104.476 75.2474C104.839 75.2238 105.115 74.91 105.091 74.5465Z" fill="black"/>
<path d="M106.326 70.5449C106.304 70.2034 106.01 69.944 105.669 69.9655C105.327 69.987 105.068 70.2812 105.089 70.6227C105.111 70.9642 105.405 71.2236 105.747 71.2021C106.088 71.1806 106.347 70.8864 106.326 70.5449Z" fill="black"/>
<path d="M107.499 65.2245C107.481 64.8607 107.171 64.5807 106.807 64.5991C106.443 64.6174 106.163 64.9272 106.182 65.291C106.2 65.6547 106.51 65.9347 106.874 65.9164C107.237 65.898 107.517 65.5882 107.499 65.2245Z" fill="black"/>
<path d="M107.845 59.0003C107.834 58.6446 107.537 58.365 107.181 58.376C106.825 58.3869 106.546 58.6842 106.557 59.04C106.568 59.3958 106.865 59.6753 107.221 59.6644C107.576 59.6534 107.856 59.3561 107.845 59.0003Z" fill="black"/>
<path d="M106.576 49.1817C106.563 48.826 106.264 48.5483 105.908 48.5614C105.552 48.5745 105.275 48.8736 105.288 49.2293C105.301 49.585 105.6 49.8627 105.956 49.8495C106.311 49.8364 106.589 49.5374 106.576 49.1817Z" fill="black"/>
<path d="M106.066 43.7905C106.056 43.3906 105.724 43.0743 105.324 43.0842C104.924 43.094 104.607 43.4263 104.617 43.8262C104.627 44.2262 104.959 44.5425 105.359 44.5326C105.759 44.5227 106.076 44.1905 106.066 43.7905Z" fill="black"/>
<path d="M104.027 37.4191C104.011 36.9862 103.647 36.6483 103.214 36.6644C102.781 36.6805 102.443 37.0444 102.46 37.4773C102.476 37.9102 102.84 38.2482 103.272 38.2321C103.705 38.216 104.043 37.8521 104.027 37.4191Z" fill="black"/>
<path d="M105.424 37.861C105.416 37.4361 105.066 37.0975 104.641 37.1046C104.216 37.1117 103.878 37.4619 103.885 37.8868C103.892 38.3116 104.242 38.6503 104.667 38.6432C105.092 38.6361 105.431 38.2859 105.424 37.861Z" fill="black"/>
<path d="M102.962 31.0767C102.943 30.5943 102.536 30.219 102.053 30.2386C101.571 30.2583 101.196 30.6653 101.215 31.1478C101.235 31.6302 101.642 32.0055 102.124 31.9858C102.607 31.9662 102.982 31.5592 102.962 31.0767Z" fill="black"/>
<path d="M100.418 26.6011C100.379 26.0506 99.9017 25.6358 99.3512 25.6745C98.8007 25.7133 98.3858 26.1909 98.4246 26.7414C98.4633 27.2919 98.941 27.7068 99.4915 27.668C100.042 27.6293 100.457 27.1516 100.418 26.6011Z" fill="black"/>
<path d="M98.9998 22.7585C98.949 22.1647 98.4264 21.7244 97.8326 21.7752C97.2387 21.826 96.7985 22.3486 96.8493 22.9424C96.9001 23.5363 97.4227 23.9765 98.0165 23.9257C98.6104 23.8749 99.0506 23.3523 98.9998 22.7585Z" fill="black"/>
<path d="M105.602 75.8941C105.579 75.5196 105.256 75.2351 104.882 75.2587C104.507 75.2823 104.223 75.605 104.246 75.9795C104.27 76.3541 104.593 76.6386 104.967 76.615C105.342 76.5914 105.626 76.2687 105.602 75.8941Z" fill="black"/>
<path d="M107.809 67.1436C107.79 66.7937 107.491 66.5252 107.141 66.5439C106.792 66.5626 106.523 66.8614 106.542 67.2113C106.56 67.5613 106.859 67.8298 107.209 67.8111C107.559 67.7924 107.828 67.4935 107.809 67.1436Z" fill="black"/>
<path d="M108.287 66.2777C108.269 65.9221 107.967 65.6483 107.611 65.666C107.256 65.6837 106.982 65.9862 107 66.3417C107.017 66.6972 107.32 66.9711 107.675 66.9534C108.031 66.9357 108.305 66.6332 108.287 66.2777Z" fill="black"/>
<path d="M109.318 60.5407C109.309 60.1877 109.015 59.9091 108.662 59.9184C108.309 59.9278 108.03 60.2216 108.039 60.5747C108.049 60.9277 108.343 61.2064 108.696 61.197C109.049 61.1876 109.327 60.8938 109.318 60.5407Z" fill="black"/>
<path d="M109.271 51.4949C109.269 51.1113 108.956 50.8025 108.572 50.8051C108.189 50.8077 107.88 51.1207 107.882 51.5042C107.885 51.8878 108.198 52.1966 108.581 52.194C108.965 52.1914 109.274 51.8784 109.271 51.4949Z" fill="black"/>
<path d="M108.126 47.1591C108.124 46.7922 107.825 46.4961 107.458 46.498C107.091 46.4998 106.795 46.7988 106.797 47.1658C106.799 47.5328 107.098 47.8288 107.465 47.8269C107.832 47.8251 108.128 47.5261 108.126 47.1591Z" fill="black"/>
<path d="M107.521 42.6144C107.521 42.2281 107.208 41.9147 106.822 41.9143C106.436 41.914 106.122 42.2269 106.122 42.6132C106.122 42.9995 106.435 43.313 106.821 43.3133C107.207 43.3136 107.521 43.0007 107.521 42.6144Z" fill="black"/>
<path d="M105.789 35.3374C105.785 34.8877 105.417 34.5263 104.967 34.5303C104.518 34.5342 104.156 34.902 104.16 35.3517C104.164 35.8015 104.532 36.1629 104.982 36.1589C105.431 36.155 105.793 35.7872 105.789 35.3374Z" fill="black"/>
</svg>
